<?xml version="1.0" encoding="UTF-8" standalone="no"?>
<!-- Created with Inkscape (http://www.inkscape.org/) -->

<svg
   width="14.549498mm"
   height="33.225872mm"
   viewBox="0 0 14.549498 33.225872"
   version="1.1"
   id="svg1"
   xml:space="preserve"
   inkscape:version="1.4.4 (dcaf3e7, 2026-05-05)"
   sodipodi:docname="spritz.svg"
   xmlns:inkscape="http://www.inkscape.org/namespaces/inkscape"
   xmlns:sodipodi="http://sodipodi.sourceforge.net/DTD/sodipodi-0.dtd"
   xmlns="http://www.w3.org/2000/svg"
   xmlns:svg="http://www.w3.org/2000/svg"><sodipodi:namedview
     id="namedview1"
     pagecolor="#ffffff"
     bordercolor="#000000"
     borderopacity="0.25"
     inkscape:showpageshadow="2"
     inkscape:pageopacity="0.0"
     inkscape:pagecheckerboard="0"
     inkscape:deskcolor="#d1d1d1"
     inkscape:document-units="mm"
     inkscape:zoom="2.1543544"
     inkscape:cx="260.63493"
     inkscape:cy="384.56997"
     inkscape:window-width="1920"
     inkscape:window-height="1057"
     inkscape:window-x="1912"
     inkscape:window-y="-8"
     inkscape:window-maximized="1"
     inkscape:current-layer="layer1"><inkscape:page
       x="6.9909434e-22"
       y="0"
       width="14.549499"
       height="33.225872"
       id="page2"
       margin="0"
       bleed="0" /></sodipodi:namedview><defs
     id="defs1"><mask
       maskUnits="userSpaceOnUse"
       id="mask20-1-8"><g
         id="g22-3-4"
         style="opacity:1;fill:#ffffff;fill-opacity:1"><path
           style="baseline-shift:baseline;display:inline;overflow:visible;vector-effect:none;fill:#ffffff;fill-opacity:1;stroke-linejoin:round;enable-background:accumulate;stop-color:#000000;stop-opacity:1"
           d="m 132.56152,88.638822 c 0,0 -1.73478,7.61294 -1.77302,10.16269 -0.0461,3.070338 0.38368,4.827128 1.64693,6.845058 1.14452,1.82828 2.90462,3.03124 3.2737,3.32434 0.36908,0.29309 1.79105,1.31301 1.99729,1.61696 0.20625,0.30395 0.25115,0.52142 0.25115,0.52142 v 8.9085 c 0,0 0.0922,2.47135 -0.15348,3.59202 -0.15502,0.7073 -0.70757,1.33532 -1.09399,1.70223 a 6.6527205,1.6787822 0 0 0 -4.73614,1.60713 6.6527205,1.6787822 0 0 0 3.89175,1.52756 l 0.006,0.0145 0.0765,-0.005 h 5.2e-4 a 6.6527205,1.6787822 0 0 0 2.67787,0.14211 6.6527205,1.6787822 0 0 0 2.67736,-0.14211 6.6527205,1.6787822 0 0 0 5.1e-4,0 l 0.0765,0.005 0.006,-0.0145 a 6.6527205,1.6787822 0 0 0 3.89175,-1.52756 6.6527205,1.6787822 0 0 0 -4.73666,-1.60713 c -0.38657,-0.36691 -0.93897,-0.99494 -1.09399,-1.70223 -0.24563,-1.12067 -0.15348,-3.59202 -0.15348,-3.59202 v -8.9085 c 0,0 0.0449,-0.21747 0.25115,-0.52142 0.20624,-0.30395 1.62821,-1.32387 1.99729,-1.61696 0.36908,-0.2931 2.12969,-1.49606 3.27422,-3.32434 1.26325,-2.01793 1.69298,-3.77472 1.64693,-6.845058 -0.0382,-2.54975 -1.77302,-10.16269 -1.77302,-10.16269 h -5.4653 -1.19993 z"
           id="path21-5-1" /><path
           style="baseline-shift:baseline;display:inline;overflow:visible;vector-effect:none;fill:#ffffff;fill-opacity:1;stroke-linejoin:round;enable-background:accumulate;stop-color:#000000;stop-opacity:1"
           d="m 132.56055,87.939453 a 0.70006999,0.70006999 0 0 0 -0.68164,0.542969 c 0,0 -0.43621,1.913005 -0.87696,4.146484 -0.44075,2.23348 -0.89272,4.738979 -0.91406,6.16211 -0.0471,3.139644 0.43159,5.114274 1.75391,7.226564 0.62125,0.9924 1.39158,1.79209 2.05273,2.38672 0.66115,0.59462 1.25351,1.01565 1.37891,1.11523 0.21772,0.17289 0.6502,0.48807 1.06836,0.81055 0.20908,0.16124 0.41143,0.32104 0.56445,0.45117 0.15302,0.13013 0.27686,0.28198 0.2207,0.19922 0.13192,0.1944 0.12981,0.23386 0.13086,0.24414 v 8.79297 a 0.70006999,0.70006999 0 0 0 0,0.0254 c 0,0 0.0231,0.60386 0.0156,1.34375 -0.007,0.73989 -0.0565,1.63496 -0.15235,2.07226 -0.0895,0.40832 -0.48444,0.88387 -0.80664,1.21485 -1.27079,0.11801 -2.41881,0.29932 -3.25195,0.58203 -0.46034,0.15621 -0.84492,0.33042 -1.16406,0.57031 -0.31915,0.2399 -0.62445,0.60362 -0.625,1.0918 -1.9e-4,0.43432 0.25016,0.78103 0.52148,1.01172 0.27133,0.23068 0.59643,0.39808 0.98047,0.54883 0.76809,0.30148 1.78362,0.52292 3.00977,0.66406 l -0.49024,-0.3711 a 0.70006999,0.70006999 0 0 0 0.61328,0.38282 0.70006999,0.70006999 0 0 0 0.01,0.006 l 0.041,-0.004 c 0.84868,0.0908 1.75166,0.14255 2.66797,0.14258 0.91612,-5e-5 1.81752,-0.0517 2.66602,-0.14258 l 0.043,0.004 a 0.70006999,0.70006999 0 0 0 0.01,-0.006 0.70006999,0.70006999 0 0 0 0.61133,-0.38086 l -0.49023,0.36914 c 1.22615,-0.14114 2.24363,-0.36258 3.01172,-0.66406 0.38404,-0.15075 0.70719,-0.31815 0.97851,-0.54883 0.27133,-0.23069 0.52167,-0.5774 0.52149,-1.01172 -6e-4,-0.4882 -0.30583,-0.85191 -0.625,-1.0918 -0.31918,-0.23989 -0.70368,-0.4141 -1.16407,-0.57031 -0.83322,-0.28271 -1.98106,-0.46404 -3.25195,-0.58203 -0.32215,-0.33087 -0.71518,-0.80648 -0.80469,-1.21485 -0.0959,-0.43733 -0.14681,-1.33237 -0.15429,-2.07226 -0.007,-0.73989 0.0156,-1.34375 0.0156,-1.34375 a 0.70006999,0.70006999 0 0 0 0,-0.0254 v -8.79297 c 10e-4,-0.0103 -0.001,-0.0497 0.13086,-0.24414 -0.0562,0.0828 0.0677,-0.0691 0.2207,-0.19922 0.15302,-0.13013 0.35538,-0.28993 0.56446,-0.45117 0.41816,-0.32248 0.85064,-0.63766 1.06836,-0.81055 0.12527,-0.0995 0.71762,-0.52061 1.3789,-1.11523 0.66129,-0.59463 1.43145,-1.39428 2.05274,-2.38672 1.32232,-2.11229 1.80099,-4.08693 1.7539,-7.226564 -0.0213,-1.423145 -0.47331,-3.928629 -0.91406,-6.16211 -0.44075,-2.233481 -0.87695,-4.146484 -0.87695,-4.146484 a 0.70006999,0.70006999 0 0 0 -0.68164,-0.542969 h -5.46485 -1.20117 z m 0.56836,1.398438 h 4.89648 1.20117 4.89649 c 0.0926,0.410965 0.37539,1.644444 0.7539,3.5625 0.43621,2.210426 0.86984,4.785504 0.88672,5.912109 0.045,3.00104 -0.33488,4.53932 -1.53906,6.46289 -0.52325,0.83584 -1.20531,1.55069 -1.80274,2.08789 -0.59742,0.5372 -1.07064,0.86498 -1.31445,1.0586 -0.15136,0.12019 -0.61413,0.46208 -1.05078,0.79882 -0.21833,0.16837 -0.43405,0.3384 -0.61719,0.49414 -0.18313,0.15575 -0.31338,0.24574 -0.47265,0.48047 -0.25478,0.37547 -0.33381,0.70425 -0.3418,0.73633 -0.008,-0.0327 -0.0853,-0.36124 -0.33984,-0.73633 -0.15928,-0.23473 -0.28952,-0.32472 -0.47266,-0.48047 -0.18314,-0.15574 -0.39691,-0.32577 -0.61523,-0.49414 -0.43666,-0.33674 -0.90138,-0.67863 -1.05274,-0.79882 -0.24368,-0.19352 -0.7152,-0.5214 -1.3125,-1.0586 -0.5973,-0.5372 -1.27947,-1.25202 -1.80273,-2.08789 -1.20419,-1.92357 -1.58608,-3.46186 -1.54102,-6.46289 0.0169,-1.12662 0.45247,-3.701682 0.88867,-5.912109 0.3785,-1.918029 0.65934,-3.151503 0.75196,-3.5625 z M 138.62695,122 c 0.0182,0.60929 0.025,1.2501 0.13672,1.75977 0.21092,0.96234 0.86253,1.64828 1.29688,2.06054 a 0.70006999,0.70006999 0 0 0 0.42773,0.18946 c 1.36381,0.1035 2.50738,0.31768 3.25195,0.57031 0.34225,0.11612 0.57082,0.24021 0.71094,0.33594 -0.10507,0.0742 -0.24159,0.16446 -0.48437,0.25976 -0.58515,0.22968 -1.51545,0.44441 -2.66016,0.57617 a 0.70006999,0.70006999 0 0 0 -0.004,0.002 l 0.002,0.002 a 0.70006999,0.70006999 0 0 0 -0.004,0 0.70006999,0.70006999 0 0 0 -0.56055,0.42383 l 0.16602,-0.40235 c -0.72952,0.07 -1.49252,0.12105 -2.2793,0.1211 -0.78701,-3e-5 -1.55152,-0.0511 -2.28125,-0.1211 l 0.16602,0.40235 a 0.70006999,0.70006999 0 0 0 -0.56055,-0.42383 0.70006999,0.70006999 0 0 0 -0.002,0 v -0.002 a 0.70006999,0.70006999 0 0 0 -0.004,-0.002 c -1.14471,-0.13176 -2.07306,-0.34649 -2.6582,-0.57617 -0.24292,-0.0953 -0.38128,-0.18559 -0.48633,-0.25976 0.13987,-0.0958 0.36993,-0.21956 0.71289,-0.33594 0.74447,-0.25263 1.8863,-0.46679 3.25,-0.57031 a 0.70006999,0.70006999 0 0 0 0.42774,-0.18946 c 0.43402,-0.41211 1.08593,-1.0981 1.29687,-2.06054 0.11174,-0.5097 0.12045,-1.15046 0.13867,-1.75977 z"
           id="path22-9-4" /></g></mask></defs><g
     inkscape:label="Layer 1"
     inkscape:groupmode="layer"
     id="layer1"
     transform="translate(-275.43123,-37.306252)"><g
       id="g9-0-8"
       transform="matrix(0.71434362,0,0,0.71434362,184.85345,-21.8313)"><circle
         style="fill:#f89200;fill-opacity:1;stroke:#ee572d;stroke-width:1.1;stroke-linejoin:round;stroke-dasharray:none;stroke-opacity:1"
         id="path6-76-8"
         cx="132.26117"
         cy="88.24839"
         r="4.9125314" /><circle
         style="fill:#ffb03f;fill-opacity:1;stroke:none;stroke-width:1.05116;stroke-linejoin:round;stroke-dasharray:none;stroke-opacity:1"
         id="circle6-3-0"
         cx="132.26117"
         cy="88.241898"
         r="3.688482" /><rect
         style="fill:#f89200;fill-opacity:1;stroke:none;stroke-width:1.53036;stroke-linejoin:round;stroke-dasharray:none;stroke-opacity:1"
         id="rect6-6-8"
         width="0.83905798"
         height="8.1556435"
         x="131.84164"
         y="84.24028"
         ry="0.41952899" /><rect
         style="fill:#f89200;fill-opacity:1;stroke:none;stroke-width:1.53036;stroke-linejoin:round;stroke-dasharray:none;stroke-opacity:1"
         id="rect7-1-7"
         width="0.83905798"
         height="8.1556435"
         x="87.898575"
         y="-136.33899"
         ry="0.41952899"
         transform="rotate(90)" /><rect
         style="fill:#f89200;fill-opacity:1;stroke:none;stroke-width:1.53036;stroke-linejoin:round;stroke-dasharray:none;stroke-opacity:1"
         id="rect8-5-7"
         width="0.83905798"
         height="8.1556435"
         x="155.55357"
         y="-35.150265"
         ry="0.41952899"
         transform="rotate(45)" /><rect
         style="fill:#f89200;fill-opacity:1;stroke:none;stroke-width:1.53036;stroke-linejoin:round;stroke-dasharray:none;stroke-opacity:1"
         id="rect9-4-8"
         width="0.83905798"
         height="8.1556435"
         x="-31.491972"
         y="-160.05092"
         ry="0.41952899"
         transform="rotate(135)" /></g><path
       id="path5-20-3"
       style="fill:#acdcf7;fill-opacity:1;stroke:none;stroke-width:1.00008;stroke-linejoin:round;stroke-dasharray:none;stroke-opacity:1"
       d="m 279.54793,41.487277 c 0,0 -1.23923,5.438255 -1.26655,7.259652 -0.0329,2.193277 0.27408,3.448229 1.17648,4.889724 0.81758,1.30602 2.07489,2.165347 2.33854,2.374721 0.26365,0.209367 1.27943,0.93794 1.42675,1.155065 0.14734,0.217125 0.17941,0.372473 0.17941,0.372473 v 6.36373 c 0,0 0.0659,1.765393 -0.10964,2.565937 -0.11073,0.505255 -0.50544,0.953877 -0.78148,1.215977 a 4.7523284,1.1992274 0 0 0 -3.38323,1.148043 4.7523284,1.1992274 0 0 0 2.78004,1.091203 l 0.004,0.01036 0.0546,-0.0036 h 3.7e-4 a 4.7523284,1.1992274 0 0 0 1.91292,0.101515 4.7523284,1.1992274 0 0 0 1.91255,-0.101515 4.7523284,1.1992274 0 0 0 3.7e-4,0 l 0.0546,0.0036 0.004,-0.01036 a 4.7523284,1.1992274 0 0 0 2.78005,-1.091203 4.7523284,1.1992274 0 0 0 -3.38361,-1.148043 c -0.27614,-0.2621 -0.67074,-0.710729 -0.78148,-1.215977 -0.17546,-0.800544 -0.10964,-2.565937 -0.10964,-2.565937 v -6.36373 c 0,0 0.0321,-0.155348 0.17941,-0.372473 0.14733,-0.217125 1.1631,-0.945698 1.42675,-1.155065 0.26365,-0.209374 1.52133,-1.068701 2.33892,-2.374721 0.90239,-1.441495 1.20937,-2.696447 1.17647,-4.889724 -0.0273,-1.821397 -1.26654,-7.259652 -1.26654,-7.259652 h -3.9041 -0.85717 z" /><path
       style="fill:#f67c3d;fill-opacity:1;stroke:none;stroke-width:0.357171;stroke-linejoin:round;stroke-dasharray:none"
       d="m 278.6516,46.420205 h 10.48384 l 0.27967,1.941893 -0.0155,1.256208 -0.062,1.101125 -0.26365,1.132142 -0.43425,1.178667 -0.80646,1.225192 -0.89951,0.946034 -1.30273,1.023583 -0.74986,-0.02857 c -0.36838,0.317111 -1.5577,0.333134 -1.98035,0.03607 l -1.13148,-0.271208 -1.27171,-1.054599 -0.96155,-1.101118 -0.55832,-1.0546 -0.48077,-1.380283 -0.21712,-1.550876 0.062,-1.736982 z"
       id="path4-9-8"
       sodipodi:nodetypes="cccccccccccccccccccc" /><path
       id="rect22-7-3"
       style="fill:#fc9b52;fill-opacity:1;stroke:none;stroke-width:0.785778;stroke-linejoin:round;stroke-dasharray:none;stroke-opacity:0.779851"
       d="m 278.65156,46.420344 -0.30971,1.662639 -0.062,1.736839 0.12145,0.867863 h 10.9382 l 0.0602,-1.069422 0.0155,-1.256205 -0.27982,-1.941714 z" /><path
       id="rect23-3-7"
       style="fill:#e96752;fill-opacity:1;stroke:none;stroke-width:0.785778;stroke-linejoin:round;stroke-dasharray:none;stroke-opacity:0.779851"
       d="m 279.41274,53.572205 0.1233,0.233297 0.96163,1.101168 1.27172,1.054657 1.13143,0.271322 c 0.42265,0.29706 1.6121,0.280937 1.98047,-0.03617 l 0.74974,0.02842 1.30272,-1.023276 0.89961,-0.946127 0.44962,-0.683291 z" /><path
       id="path2-7-1"
       style="fill:none;fill-opacity:0.526119;stroke:#acdcf7;stroke-width:1.00008;stroke-linejoin:round;stroke-dasharray:none;stroke-opacity:1"
       d="m 279.54793,41.487277 c 0,0 -1.23923,5.438255 -1.26655,7.259652 -0.0329,2.193277 0.27408,3.448229 1.17648,4.889724 0.81758,1.30602 2.07489,2.165347 2.33854,2.374721 0.26365,0.209367 1.27943,0.93794 1.42675,1.155065 0.14734,0.217125 0.17941,0.372473 0.17941,0.372473 v 6.36373 c 0,0 0.0659,1.765393 -0.10964,2.565937 -0.11073,0.505255 -0.50544,0.953877 -0.78148,1.215977 a 4.7523284,1.1992274 0 0 0 -3.38323,1.148043 4.7523284,1.1992274 0 0 0 2.78004,1.091203 l 0.004,0.01036 0.0546,-0.0036 h 3.7e-4 a 4.7523284,1.1992274 0 0 0 1.91292,0.101515 4.7523284,1.1992274 0 0 0 1.91255,-0.101515 4.7523284,1.1992274 0 0 0 3.7e-4,0 l 0.0546,0.0036 0.004,-0.01036 a 4.7523284,1.1992274 0 0 0 2.78005,-1.091203 4.7523284,1.1992274 0 0 0 -3.38361,-1.148043 c -0.27614,-0.2621 -0.67074,-0.710729 -0.78148,-1.215977 -0.17546,-0.800544 -0.10964,-2.565937 -0.10964,-2.565937 v -6.36373 c 0,0 0.0321,-0.155348 0.17941,-0.372473 0.14733,-0.217125 1.1631,-0.945698 1.42675,-1.155065 0.26365,-0.209374 1.52133,-1.068701 2.33892,-2.374721 0.90239,-1.441495 1.20937,-2.696447 1.17647,-4.889724 -0.0273,-1.821397 -1.26654,-7.259652 -1.26654,-7.259652 h -3.9041 -0.85717 z" /><rect
       style="fill:#ffffff;fill-opacity:0.576493;stroke:none;stroke-width:0.575685;stroke-linecap:butt;stroke-linejoin:round;stroke-dasharray:none;stroke-opacity:0.779851"
       id="rect42-2-4-1-2-0"
       width="3.9054348"
       height="3.9054348"
       x="-27.937967"
       y="287.52423"
       ry="0.80942243"
       transform="rotate(-84.971997)" /><rect
       style="fill:#ffffff;fill-opacity:0.576493;stroke:none;stroke-width:0.575685;stroke-linecap:butt;stroke-linejoin:round;stroke-dasharray:none;stroke-opacity:0.779851"
       id="rect42-2-4-1-4-60-7"
       width="3.9054348"
       height="3.9054348"
       x="205.08998"
       y="195.23126"
       ry="0.80942243"
       transform="rotate(-33.460478)" /><rect
       style="fill:#ffffff;fill-opacity:0.576493;stroke:none;stroke-width:0.575685;stroke-linecap:butt;stroke-linejoin:round;stroke-dasharray:none;stroke-opacity:0.779851"
       id="rect42-0-5-1-3"
       width="3.9054348"
       height="3.9054348"
       x="281.53467"
       y="-54.946621"
       ry="0.80942243"
       transform="rotate(21.261464)" /><g
       id="g13-65-4"
       mask="url(#mask20-1-8)"
       style="opacity:0.4"
       transform="matrix(0.71434362,0,0,0.71434362,184.85345,-21.8313)"><circle
         style="fill:#f89200;fill-opacity:1;stroke:#ee572d;stroke-width:1.1;stroke-linejoin:round;stroke-dasharray:none;stroke-opacity:1"
         id="circle9-7-9"
         cx="132.26117"
         cy="88.24839"
         r="4.9125314" /><circle
         style="fill:#ffb03f;fill-opacity:1;stroke:none;stroke-width:1.05116;stroke-linejoin:round;stroke-dasharray:none;stroke-opacity:1"
         id="circle10-5-6"
         cx="132.26117"
         cy="88.241898"
         r="3.688482" /><rect
         style="fill:#f89200;fill-opacity:1;stroke:none;stroke-width:1.53036;stroke-linejoin:round;stroke-dasharray:none;stroke-opacity:1"
         id="rect10-4-5"
         width="0.83905798"
         height="8.1556435"
         x="131.84164"
         y="84.24028"
         ry="0.41952899" /><rect
         style="fill:#f89200;fill-opacity:1;stroke:none;stroke-width:1.53036;stroke-linejoin:round;stroke-dasharray:none;stroke-opacity:1"
         id="rect11-1-1"
         width="0.83905798"
         height="8.1556435"
         x="87.898575"
         y="-136.33899"
         ry="0.41952899"
         transform="rotate(90)" /><rect
         style="fill:#f89200;fill-opacity:1;stroke:none;stroke-width:1.53036;stroke-linejoin:round;stroke-dasharray:none;stroke-opacity:1"
         id="rect12-2-0"
         width="0.83905798"
         height="8.1556435"
         x="155.55357"
         y="-35.150265"
         ry="0.41952899"
         transform="rotate(45)" /><rect
         style="fill:#f89200;fill-opacity:1;stroke:none;stroke-width:1.53036;stroke-linejoin:round;stroke-dasharray:none;stroke-opacity:1"
         id="rect13-0-9"
         width="0.83905798"
         height="8.1556435"
         x="-31.491972"
         y="-160.05092"
         ry="0.41952899"
         transform="rotate(135)" /></g><path
       style="fill:none;fill-opacity:1;stroke:#ffffff;stroke-width:0.785778;stroke-linecap:round;stroke-linejoin:round;stroke-dasharray:none;stroke-opacity:1"
       d="m 287.63017,42.124513 c 0.58529,2.588061 0.77285,3.769311 1.00892,6.500904"
       id="path24-0-9"
       sodipodi:nodetypes="cc"
       inkscape:export-filename="Projects\Lara\public\images\full_spritz.svg"
       inkscape:export-xdpi="96"
       inkscape:export-ydpi="96" /></g></svg>
