<?xml version="1.0" encoding="UTF-8" standalone="no"?>
<!-- Created with Inkscape (http://www.inkscape.org/) -->

<svg
   width="287.92963mm"
   height="346.16525mm"
   viewBox="0 0 287.92963 346.16525"
   version="1.1"
   id="svg1"
   xml:space="preserve"
   inkscape:version="1.4.4 (dcaf3e7, 2026-05-05)"
   sodipodi:docname="spritz.svg"
   xmlns:inkscape="http://www.inkscape.org/namespaces/inkscape"
   xmlns:sodipodi="http://sodipodi.sourceforge.net/DTD/sodipodi-0.dtd"
   xmlns="http://www.w3.org/2000/svg"
   xmlns:svg="http://www.w3.org/2000/svg"><sodipodi:namedview
     id="namedview1"
     pagecolor="#ffffff"
     bordercolor="#000000"
     borderopacity="0.25"
     inkscape:showpageshadow="2"
     inkscape:pageopacity="0.0"
     inkscape:pagecheckerboard="0"
     inkscape:deskcolor="#d1d1d1"
     inkscape:document-units="mm"
     inkscape:zoom="1.0771772"
     inkscape:cx="721.32979"
     inkscape:cy="366.23501"
     inkscape:window-width="1920"
     inkscape:window-height="1057"
     inkscape:window-x="-8"
     inkscape:window-y="1072"
     inkscape:window-maximized="1"
     inkscape:current-layer="layer1"><inkscape:page
       x="0"
       y="0"
       width="287.92963"
       height="346.16525"
       id="page2"
       margin="0"
       bleed="0" /></sodipodi:namedview><defs
     id="defs1" /><g
     inkscape:label="Layer 1"
     inkscape:groupmode="layer"
     id="layer1"
     transform="translate(-533.94742,4.2269448)"><path
       id="path25"
       style="fill:#ffffff;fill-opacity:1;stroke:#ffffff;stroke-width:0.631;stroke-dasharray:none;stroke-opacity:1"
       d="m 739.28436,339.92546 c 0.16146,-0.42424 0.0462,-1.02736 -0.44141,-2.30961 -0.47433,-1.24734 -0.60101,-1.77897 -0.60101,-2.52216 0,-0.9685 0.23743,-1.50775 0.99771,-2.26602 0.44355,-0.44238 0.88277,-0.76477 1.53919,-1.12978 2.11044,-1.17352 2.57381,-1.52751 2.93655,-2.24334 0.44764,-0.88338 0.47139,-1.69581 0.0637,-2.18028 -0.12102,-0.14382 -0.62956,-0.54026 -1.13009,-0.88096 -1.2645,-0.86073 -1.76875,-1.49595 -1.93898,-2.44262 -0.10498,-0.58384 0.01,-1.11243 0.45424,-2.09561 0.22102,-0.4887 0.40185,-0.92283 0.40185,-0.96473 0,-0.0419 -0.14762,-0.11802 -0.32804,-0.16915 -0.55098,-0.15615 -2.40089,-0.4401 -2.86735,-0.44012 -0.5835,-2e-5 -0.76289,-0.14466 -1.04101,-0.83938 -0.73592,-1.83831 -0.87658,-4.44096 -0.30097,-5.56923 0.0935,-0.18321 0.45754,-0.64545 0.80906,-1.0272 1.24693,-1.35414 1.43154,-1.94011 1.5434,-4.89876 0.091,-2.40568 0.1954,-3.0441 0.6571,-4.01631 0.42891,-0.90317 0.95178,-1.47806 2.13359,-2.34589 1.14061,-0.83758 1.84577,-1.48218 2.16569,-1.97973 0.11938,-0.18567 0.43039,-0.82672 0.69113,-1.42456 0.65624,-1.50464 0.82601,-1.82638 1.70126,-3.22417 1.01299,-1.61777 1.35365,-2.25086 1.61748,-3.00601 0.26948,-0.77131 0.4247,-1.83129 0.35385,-2.41637 -0.0377,-0.31123 -0.002,-0.61501 0.12215,-1.04535 0.0964,-0.33364 0.16007,-0.62182 0.14148,-0.64041 -0.056,-0.056 -1.18623,0.24754 -1.90915,0.5127 -0.74692,0.27396 -3.11563,1.25962 -3.9931,1.6616 -0.30756,0.14089 -1.09257,0.61533 -1.74447,1.05432 -2.82594,1.90296 -3.80666,2.03333 -7.13245,0.94813 -1.96805,-0.64218 -2.69868,-0.77053 -3.5352,-0.62104 -0.88759,0.15862 -1.35907,0.42047 -2.38128,1.32249 -1.58698,1.40038 -2.38334,1.80501 -4.50168,2.28731 -1.23384,0.28092 -2.13035,0.53698 -2.41683,0.6903 -0.0993,0.0532 -0.2983,0.35937 -0.44219,0.6805 -0.43319,0.96672 -0.75671,1.209 -1.76652,1.3229 -0.81196,0.0916 -3.49128,-0.10239 -5.29496,-0.38334 -1.86182,-0.29 -4.32903,-0.44158 -5.11853,-0.31446 -0.65665,0.10572 -0.90319,0.2121 -1.62925,0.703 -1.23567,0.83545 -2.17545,1.11292 -3.46194,1.02213 -1.68051,-0.1186 -3.17716,-0.71061 -5.90165,-2.33444 -1.67039,-0.99557 -1.62665,-0.97614 -2.97097,-1.31984 -0.5533,-0.14146 -1.21081,-0.35718 -1.46113,-0.47938 -0.63556,-0.31025 -1.14831,-0.91606 -1.49435,-1.76555 -0.35021,-0.85975 -0.58965,-1.22645 -0.96672,-1.48056 -0.39484,-0.26608 -1.15572,-0.42815 -1.51983,-0.32372 -0.2944,0.0844 -0.33212,0.15235 -0.47846,0.86156 -0.1347,0.65286 -0.50309,0.62612 -2.42848,-0.17628 -0.50508,-0.21053 -0.97608,-0.34148 -1.33018,-0.36991 l -0.5482,-0.044 0.093,0.33971 c 0.1342,0.48778 0.3935,0.9678 0.8291,1.53499 0.4121,0.53641 0.5443,0.81988 0.4917,1.0539 -0.065,0.28999 -2.1027,1.68712 -3.2589,2.23475 -1.0847,0.51373 -1.646,0.66487 -2.4932,0.67134 -0.9184,0.007 -1.2589,-0.13178 -1.8455,-0.75221 -0.5004,-0.52928 -0.6601,-0.83031 -1.1273,-2.12454 -0.225,-0.62324 -0.4636,-1.23856 -0.5302,-1.36737 -0.1572,-0.30403 -0.6211,-0.69244 -0.827,-0.69244 -0.224,0 -0.3074,0.44618 -0.1731,0.92597 0.093,0.33108 0.087,0.41397 -0.039,0.60723 -0.2188,0.33393 -1.1632,0.99479 -2.2561,1.57872 -1.6265,0.86905 -2.0438,1.35205 -3.03,3.50731 -1.0837,2.36812 -1.8464,4.72395 -1.9851,6.13187 -0.057,0.57326 -0.041,0.67224 0.1704,1.10475 0.3149,0.6437 0.785,1.05054 1.4203,1.2292 1.6355,0.45995 2.1438,0.9309 2.3977,2.22169 0.1354,0.6882 0.3623,1.02933 0.9095,1.36734 0.3591,0.22177 0.5162,0.26427 0.9606,0.25975 0.4463,-0.005 0.7136,-0.0845 1.6686,-0.49902 1.3946,-0.6053 2.0318,-0.7615 3.1055,-0.76123 0.9899,2.5e-4 1.867,0.20541 2.7531,0.64396 0.6622,0.32777 1.0362,0.66393 1.4742,1.32523 0.4057,0.61246 0.6084,0.7275 1.4589,0.82785 1.41162,0.16656 2.58955,0.90784 5.21155,3.27972 2.99334,2.70778 3.37535,2.94595 6.37939,3.97721 2.08673,0.71636 2.76311,1.054 4.25663,2.12484 2.30704,1.65415 3.29969,2.20247 5.19112,2.86749 0.57736,0.203 1.48277,0.5381 2.01202,0.74466 1.21069,0.47253 1.37447,0.51333 2.97429,0.74101 4.29062,0.61062 7.00645,1.97459 8.54391,4.291 0.17647,0.26589 0.71561,1.28863 1.19806,2.27274 0.97672,1.9923 1.55236,2.83188 2.29182,3.34262 0.41623,0.28749 0.63903,0.36189 1.78138,0.59492 1.45054,0.29589 2.17116,0.58403 3.20717,1.2824 0.90737,0.61165 1.29205,0.7922 1.89471,0.88926 0.57912,0.0933 1.46877,0.0113 2.2772,-0.20989 0.82003,-0.22432 2.05512,-0.26343 2.90951,-0.0921 1.00677,0.20186 2.69913,0.77602 3.49591,1.18605 0.36085,0.1857 0.69502,0.32766 0.74259,0.31549 0.0476,-0.0122 0.14313,-0.17095 0.21235,-0.35282 z m -0.60502,1.51276 c -0.63851,-0.53118 -2.8434,-1.36188 -4.26461,-1.6067 -0.86579,-0.14914 -1.14577,-0.12353 -2.90868,0.26611 -0.88981,0.19666 -2.22175,0.13862 -2.87633,-0.12534 -0.25886,-0.10439 -0.92058,-0.48116 -1.47049,-0.83727 -1.10492,-0.71554 -1.61966,-0.91634 -3.04517,-1.18789 -0.52925,-0.10082 -1.13762,-0.26045 -1.35194,-0.35472 -1.17212,-0.51559 -2.03713,-1.58321 -3.18071,-3.92571 -1.00808,-2.06494 -1.26823,-2.50343 -1.87249,-3.15611 -0.59615,-0.64391 -1.31795,-1.16761 -2.2553,-1.63632 -1.42782,-0.71396 -2.71417,-1.06564 -5.20501,-1.42298 -1.29697,-0.18607 -1.44001,-0.22815 -4.38145,-1.28889 -2.45275,-0.8845 -3.43202,-1.40482 -5.73419,-3.04676 -1.60973,-1.14809 -2.21253,-1.45483 -4.19398,-2.1342 -1.91742,-0.65741 -3.25452,-1.30031 -4.23596,-2.03674 -0.40896,-0.30687 -1.45215,-1.19832 -2.3182,-1.981 -2.68312,-2.42484 -3.60192,-3.03231 -4.79932,-3.17296 -1.1967,-0.14058 -1.6221,-0.41115 -2.4485,-1.55725 -0.4329,-0.60028 -1.3509,-1.05193 -2.501,-1.23037 -0.864,-0.13404 -1.7419,0.008 -2.7894,0.45026 -1.6103,0.68038 -2.0278,0.80523 -2.6831,0.80235 -0.6938,-0.003 -1.0947,-0.14515 -1.7381,-0.61598 -0.6205,-0.45408 -0.8973,-0.88593 -1.0681,-1.66641 -0.2448,-1.11894 -0.3632,-1.22505 -1.8674,-1.67283 -0.5706,-0.16986 -0.7152,-0.25909 -1.1907,-0.73464 -0.8607,-0.86065 -0.96,-1.11217 -0.9548,-2.4187 0,-0.89814 0.046,-1.24977 0.2376,-1.96828 0.4737,-1.77628 1.151,-3.53557 2.1387,-5.55492 0.6052,-1.23739 0.7214,-1.41369 1.3283,-2.0166 0.4895,-0.48628 0.8613,-0.76076 1.4086,-1.03986 0.409,-0.20856 1.0487,-0.57851 1.4215,-0.82213 l 0.678,-0.44294 v -0.9385 c 0,-1.01369 0.057,-1.15841 0.4951,-1.26848 0.3611,-0.0906 1.199,0.023 1.567,0.21264 0.7107,0.36613 1.0543,0.893 1.6245,2.49103 0.4261,1.19455 0.5961,1.52114 0.9865,1.89619 0.5865,0.56336 1.5906,0.462 3.1466,-0.31764 0.4898,-0.2454 1.7101,-1.00016 2.1813,-1.34904 0.04,-0.0294 -0.1123,-0.33828 -0.3375,-0.68651 -0.5203,-0.80427 -0.7406,-1.43124 -0.7406,-2.10771 0,-0.66607 0.092,-0.8399 0.504,-0.95439 0.7917,-0.21985 1.7765,-0.0621 3.06547,0.49102 0.39952,0.17145 0.74705,0.29107 0.77229,0.26584 0.0252,-0.0252 0.11585,-0.1773 0.20137,-0.33792 0.0855,-0.16062 0.3371,-0.40521 0.55908,-0.54354 0.52477,-0.32701 1.25899,-0.34341 2.18052,-0.0487 0.52664,0.16842 0.71642,0.28517 1.11975,0.6889 0.39394,0.39433 0.55585,0.65316 0.85746,1.37076 0.53485,1.27253 0.72838,1.4224 2.40069,1.85923 1.30095,0.33983 1.48895,0.42468 3.20694,1.44745 2.94063,1.75066 4.23594,2.21549 5.94135,2.13208 0.91963,-0.045 1.18759,-0.14374 2.1388,-0.78835 0.28013,-0.18984 0.7722,-0.46821 1.09349,-0.6186 0.53248,-0.24925 0.67858,-0.27659 1.65169,-0.30904 1.33061,-0.0444 3.51371,0.10708 4.8373,0.33561 1.34422,0.23208 4.19342,0.4678 4.88962,0.40453 0.65972,-0.06 0.8252,-0.18276 1.01456,-0.75288 0.0758,-0.22814 0.27372,-0.57362 0.43987,-0.76773 0.37404,-0.43698 0.97941,-0.66771 3.03254,-1.1558 2.20731,-0.52475 2.65536,-0.74263 4.04537,-1.96727 1.57116,-1.38422 2.07223,-1.62126 3.57148,-1.68955 1.14287,-0.0521 1.61503,0.0335 3.2672,0.59221 1.73272,0.58591 2.42981,0.72962 3.30109,0.68054 0.88888,-0.0501 1.51372,-0.32007 2.83835,-1.2265 1.46288,-1.00103 1.73296,-1.14742 3.48864,-1.89093 3.41215,-1.44499 4.21589,-1.69945 5.40441,-1.71097 0.757,-0.007 0.78687,-7e-5 0.91297,0.22225 0.11999,0.21154 0.10804,0.30908 -0.14997,1.22471 -0.22667,0.80439 -0.28015,1.15398 -0.27936,1.82592 0.002,1.64578 -0.49268,2.95197 -2.07042,5.46744 -0.99079,1.57966 -1.10196,1.78604 -1.5552,2.88682 -0.80965,1.96644 -1.338,2.63333 -3.15255,3.97928 -1.18694,0.88041 -1.46471,1.15236 -1.85196,1.81314 -0.4507,0.76907 -0.55996,1.38354 -0.64219,3.61159 -0.0766,2.07541 -0.20197,3.04151 -0.48817,3.7616 -0.28258,0.71101 -0.73558,1.39312 -1.38971,2.09259 -0.76466,0.81764 -0.8315,1.00477 -0.8306,2.32511 10e-4,1.39156 0.40386,3.1902 0.71561,3.19459 0.30285,0.004 2.02085,0.27438 2.56323,0.40301 0.93925,0.22275 1.3546,0.44566 1.50612,0.80828 0.18092,0.433 0.0925,0.85806 -0.39352,1.89262 -0.51065,1.0869 -0.53764,1.47355 -0.14699,2.10636 0.17803,0.28839 0.48128,0.58218 0.91853,0.88986 1.19454,0.84057 1.60565,1.19897 1.87395,1.63366 0.25117,0.40695 0.26573,0.47986 0.26202,1.31219 -0.008,1.86143 -0.75213,2.81499 -3.25824,4.17688 -1.90941,1.03762 -2.51223,1.70936 -2.49858,2.78423 0.007,0.57188 0.0906,0.8696 0.77153,2.75559 0.28545,0.79062 0.31319,0.94633 0.28837,1.61836 -0.0313,0.8474 -0.18236,1.23794 -0.68198,1.76314 -0.37074,0.38974 -0.70073,0.43658 -1.04689,0.1486 z m -72.20803,-43.3326 c -0.2492,-0.59636 -0.2702,-0.61495 -0.434,-0.38328 -0.14,0.19819 -0.1378,0.21338 0.048,0.33871 0.1072,0.0722 0.2364,0.17893 0.2873,0.23724 0.1774,0.20354 0.225,0.11034 0.098,-0.19267 z m 0.3757,2.61986 c -0.4512,-0.22682 -0.646,-0.4618 -0.9968,-1.20266 l -0.2382,-0.50322 -0.4668,0.0152 c -0.6297,0.0206 -0.7661,-0.10131 -0.7145,-0.63845 0.043,-0.44777 0.3384,-0.92828 0.9952,-1.61871 0.3262,-0.34293 0.3995,-0.37874 0.7757,-0.37874 0.805,0 1.2666,0.74867 1.6723,2.71185 0.1144,0.55331 0.2083,1.12785 0.2088,1.27676 0,0.56234 -0.5105,0.70247 -1.2357,0.33792 z m 91.86506,-2.98813 1.26845,-0.32365 2.14323,-0.007 c 1.17879,-0.004 2.20437,-0.0368 2.27909,-0.0727 0.37956,-0.18239 0.59547,-0.95694 0.87016,-3.12157 0.27064,-2.13271 0.47134,-2.89349 0.97867,-3.70979 0.15227,-0.24501 0.60359,-1.06697 1.00293,-1.82659 1.46343,-2.78368 1.92713,-3.31794 3.96698,-4.57072 1.25138,-0.76854 1.7195,-1.13873 2.16431,-1.71152 0.25144,-0.32377 0.4892,-0.53823 0.62899,-0.56733 0.74998,-0.1561 1.03796,-0.50782 1.23475,-1.50808 0.14629,-0.74359 0.0596,-3.32126 -0.17272,-5.13268 -0.38041,-2.96675 -0.14966,-4.67187 0.87785,-6.48685 0.65762,-1.16161 1.46529,-1.88333 4.01474,-3.58752 3.96267,-2.64886 5.08941,-3.18442 6.24392,-2.96783 0.16788,0.0315 0.68599,0.32983 1.15966,0.66775 0.47091,0.33596 0.89677,0.59731 0.94635,0.58078 0.0496,-0.0165 0.13217,-0.17984 0.18353,-0.36292 0.11849,-0.4223 0.36675,-0.62273 0.86362,-0.69724 0.21617,-0.0324 0.48332,-0.13241 0.59365,-0.22221 l 0.20059,-0.16327 -0.53985,-1.04043 c -0.58226,-1.12215 -0.70145,-1.54968 -0.94538,-3.39105 -0.21603,-1.63085 -0.25096,-2.88498 -0.14372,-5.16128 0.23083,-4.89981 -0.1272,-5.6621 -3.59113,-7.64593 -1.5577,-0.89212 -1.66426,-0.96788 -2.98189,-2.11993 -1.81475,-1.58671 -2.0766,-1.67213 -3.82641,-1.24824 -1.66471,0.40327 -3.59125,0.30623 -4.65069,-0.23426 -0.54401,-0.27753 -1.18157,-0.92086 -1.42723,-1.44014 -0.59992,-1.26814 -0.462,-2.78 0.56226,-6.16325 0.7056,-2.3307 0.75672,-2.54879 1.00659,-4.29448 0.82097,-5.7358 2.44634,-9.99632 5.20382,-13.64063 2.19142,-2.89619 3.66557,-4.355 4.8478,-4.79733 1.28832,-0.48203 4.2866,-0.488 7.25949,-0.0145 1.15226,0.18353 1.36958,0.30196 1.36958,0.74633 0,0.62262 -0.84509,1.42486 -2.08596,1.9802 -0.4686,0.20972 -0.85893,0.42066 -0.86741,0.46878 -0.0226,0.12794 1.17335,0.56633 3.30632,1.21203 1.03278,0.31264 2.31079,0.75222 2.84004,0.97684 2.30836,0.97969 2.80011,1.0636 5.12364,0.87421 2.91668,-0.23773 4.03798,-0.14942 5.06708,0.39908 1.0328,0.55046 1.6805,1.46764 2.4355,3.44869 0.2384,0.62548 0.7144,1.7181 1.0578,2.42804 0.7421,1.53442 1.1241,2.65223 1.1985,3.50709 0.076,0.87772 0.2159,1.11826 1.0282,1.77165 1.6813,1.35234 4.2121,2.64133 5.9683,3.03971 0.6112,0.13866 1.8152,0.23036 1.8993,0.14467 0.024,-0.0241 0.1062,-0.59486 0.1835,-1.26845 0.077,-0.67359 0.2774,-2.07107 0.4446,-3.10551 0.7182,-4.44339 0.7566,-6.40899 0.1659,-8.47568 -0.3852,-1.34783 -1.1583,-2.74979 -2.176,-3.94636 -0.6904,-0.81172 -2.394,-2.51699 -3.1417,-3.14481 -0.39,-0.32745 -1.2407,-0.94845 -1.8906,-1.38 -1.4381,-0.95505 -2.5962,-1.87064 -3.9657,-3.13539 -1.9723,-1.82148 -2.1574,-1.93155 -4.5424,-2.70067 -1.4519,-0.46823 -1.6158,-0.54359 -2.4931,-1.14625 -2.3519,-1.61554 -2.41912,-1.63831 -4.61323,-1.56241 -1.28449,0.0444 -1.68443,0.0285 -2.17052,-0.0864 -0.8403,-0.19866 -1.46876,-0.51935 -2.03879,-1.04032 -0.58756,-0.53701 -0.73241,-0.75804 -1.51937,-2.31855 -0.73296,-1.45343 -1.13871,-1.93425 -2.26503,-2.68407 -1.46351,-0.9743 -3.54765,-1.90084 -6.87775,-3.05763 -4.47724,-1.55527 -5.4126,-1.94101 -11.41603,-4.70791 -4.35355,-2.00649 -5.70084,-2.57048 -9.14157,-3.82672 -2.32122,-0.84749 -3.37868,-1.27166 -4.18633,-1.67922 -1.39675,-0.70482 -2.51189,-1.69755 -2.93046,-2.60878 -0.47211,-1.02775 -0.32259,-2.45114 0.39295,-3.74089 0.71951,-1.2969 1.51562,-2.17094 3.62898,-3.9842 1.79887,-1.54343 2.26248,-2.16501 2.33121,-3.12554 0.0379,-0.52923 0.0141,-0.66336 -0.19251,-1.08561 -0.43182,-0.88261 -1.55261,-1.64166 -3.06789,-2.07773 -0.6506,-0.18723 -0.85674,-0.20113 -2.93055,-0.19759 -2.58432,0.004 -2.92662,0.0442 -7.47287,0.86842 -4.61238,0.83623 -6.92467,1.06762 -9.80426,0.98114 -1.8565,-0.0558 -2.94305,-0.21575 -3.74605,-0.55161 -0.93386,-0.39058 -2.92584,-1.73697 -3.57635,-2.41726 l -0.5865,-0.61336 -0.41951,0.0498 c -0.23073,0.0274 -0.64246,0.0771 -0.91496,0.11045 -0.62919,0.077 -1.08978,-0.12877 -1.83739,-0.82093 -0.7006,-0.64863 -1.14801,-1.24649 -1.89588,-2.53339 -0.88982,-1.53118 -1.4102,-2.27304 -1.95438,-2.78618 -0.56973,-0.53722 -0.775,-0.64873 -1.93473,-1.05098 -1.80417,-0.62577 -2.27852,-1.01672 -3.54098,-2.91838 -0.91991,-1.38567 -1.83494,-2.35188 -4.61231,-4.8703 -3.84263,-3.48435 -4.93309,-4.83961 -6.65684,-8.27329 -1.52631,-3.04037 -1.87609,-4.05776 -2.57898,-7.50149 -1.24775,-6.11314 -2.31981,-9.78395 -3.97275,-13.60301 -0.35401,-0.81793 -0.8998,-2.23769 -1.21287,-3.15503 -0.31306,-0.91733 -0.67246,-1.90147 -0.79865,-2.18697 -0.57889,-1.30973 -1.61291,-2.54473 -2.71075,-3.23766 -0.28737,-0.18137 -1.26105,-0.67321 -2.16374,-1.09296 -2.47846,-1.15249 -2.79395,-1.38904 -5.44933,-4.08572 -1.25099,-1.27041 -2.51489,-2.50209 -2.80889,-2.73707 -0.6905,-0.55206 -2.0548,-1.40614 -3.9707,-2.48585 -4.8406,-2.727784 -6.7321,-4.025224 -9.093,-6.237104 -2.5294,-2.36974 -4.4133,-5.14997 -5.2888,-7.80502 -0.4141,-1.25598 -0.5554,-2.01154 -0.7067,-3.78006 -0.071,-0.83184 -0.2481,-2.33911 -0.393,-3.34949 -0.5387,-3.75562 -0.4351,-5.30732 0.443,-6.63304 0.5308,-0.80136 1.7131,-1.42196 2.8991,-1.5218 l 0.5889,-0.0496 0.057,-0.31549 c 0.082,-0.45585 0.1742,-0.59402 0.4402,-0.66076 0.1712,-0.043 0.3056,-0.008 0.4903,0.12885 0.1399,0.10345 0.2761,0.16632 0.3027,0.13972 0.027,-0.0266 -0.036,-0.41388 -0.1387,-0.86063 -0.31,-1.34639 -0.2181,-1.91249 0.3922,-2.41556 l 0.2927,-0.24131 -0.1826,-0.3691 c -0.2766,-0.55911 -0.8395,-0.99261 -2.1901,-1.68671 -1.9005,-0.97674 -2.494,-1.50078 -3.0028,-2.65121 -0.3124,-0.70634 -0.4627,-1.37946 -0.5591,-2.5043 -0.048,-0.55432 -0.1285,-1.11826 -0.1798,-1.2532 -0.1833,-0.48219 -0.6306,-1.01973 -1.2533,-1.50618 -0.8939,-0.69827 -0.9549,-0.99545 -0.2852,-1.38795 0.4519,-0.26481 0.8741,-0.73112 1.058,-1.16845 0.075,-0.17864 0.2532,-0.75781 0.3958,-1.28706 0.4197,-1.55836 0.7121,-2.19888 1.3196,-2.8908 0.437,-0.4978 0.8679,-0.72585 1.5773,-0.83477 0.351,-0.0539 0.6852,-0.1363 0.7427,-0.1831 0.058,-0.0468 0.1712,-0.28874 0.2526,-0.53763 0.3093,-0.94584 0.4293,-1.09607 1.1479,-1.43733 1.0547,-0.50089 1.9047,-0.48379 2.6932,0.0542 0.6218,0.42419 0.6618,0.80366 0.145,1.37294 -0.4372,0.48155 -0.8627,0.74546 -1.9015,1.17921 -1.0877,0.45423 -1.3731,0.65355 -1.5138,1.05729 -0.075,0.21628 -0.066,0.25172 0.069,0.25172 0.5451,0 2.5051,-0.96287 4.6456,-2.28207 0.7938,-0.48929 1.7977,-1.0889 2.2307,-1.33247 0.433,-0.24357 1.2203,-0.71628 1.7496,-1.05048 2.0409,-1.28874 3.2673,-1.83804 4.7146,-2.11167 0.3798,-0.0718 0.7886,-0.1948 0.9084,-0.27331 0.2103,-0.13778 0.2159,-0.16624 0.1615,-0.81852 -0.063,-0.7603 -0.023,-0.83613 0.5796,-1.08492 0.3152,-0.13018 0.328,-0.152 0.328,-0.55895 0,-0.98764 0.5119,-2.09922 1.1717,-2.5443 0.90684,-0.61173 2.32448,-0.59015 3.75198,0.0571 0.30306,0.13741 1.08646,0.6082 1.74089,1.04621 1.42706,0.9551 2.3275,1.4277 2.82762,1.48407 0.47851,0.0539 0.52589,-0.0289 0.5008,-0.87524 -0.0247,-0.8333 0.10951,-1.02776 0.70932,-1.02776 0.895,0 1.63497,0.40199 2.90377,1.57746 0.7846,0.72689 1.45994,1.13195 1.88992,1.13354 0.12698,3.3e-4 0.3208,0.0737 0.43069,0.16265 0.1871,0.15151 0.19855,0.21835 0.18,1.0502 -0.0109,0.48862 -0.0569,1.11455 -0.10214,1.39096 -0.0453,0.2764 -0.0825,0.51598 -0.0828,0.53239 -2.8e-4,0.0164 0.41631,0.0164 0.92576,0 0.89939,-0.029 0.93264,-0.0372 1.14623,-0.28575 0.46908,-0.54573 0.12447,-1.83967 -0.83635,-3.14028 -0.66924,-0.90592 -1.19671,-1.24759 -2.72329,-1.76404 -1.77885,-0.60177 -2.51466,-1.14714 -3.06801,-2.27394 -0.27347,-0.55688 -0.29929,-0.67656 -0.29253,-1.35592 0.006,-0.63844 0.0658,-0.92389 0.41553,-1.99357 0.55941,-1.71129 0.57414,-1.63552 -0.32094,-1.65084 -0.85281,-0.0146 -1.36004,-0.22139 -1.64107,-0.66903 -0.33935,-0.54053 -0.0632,-1.89244 0.5347,-2.61726 0.14719,-0.17846 0.77712,-0.66284 1.39983,-1.0764 1.19888,-0.79622 1.39786,-0.99043 1.39786,-1.36432 0,-0.22634 -0.0173,-0.23408 -0.59501,-0.26672 -0.68007,-0.0384 -0.86045,-0.14638 -1.41334,-0.84585 -0.19371,-0.24506 -0.43037,-0.4874 -0.5259,-0.53853 -0.0955,-0.0511 -0.59776,-0.13241 -1.11606,-0.18062 -1.20172,-0.1118 -1.44212,-0.19369 -1.80168,-0.61376 -0.88631,-1.03545 -0.58707,-2.44934 0.89551,-4.23124 0.54919,-0.66007 1.06331,-1.03654 2.45698,-1.79917 2.32801,-1.27391 3.06177,-1.89222 3.06177,-2.58004 0,-0.35407 -0.70649,-1.04482 -1.43549,-1.40351 -1.0494,-0.51634 -1.48843,-0.5728 -5.03797,-0.64787 l -3.19299,-0.0675 -1.21454,-0.31776 c -2.01575,-0.52738 -3.55695,-0.79779 -7.31465,-1.28337 -3.9228,-0.50691 -5.8659,-0.88902 -7.567,-1.48808 -1.8349,-0.64618 -2.8141,-1.36527 -3.7456,-2.7506403 -0.801,-1.19123 -1.214,-1.59584 -1.8008,-1.764 -0.2693,-0.0772 -0.5331,-0.175 -0.5862,-0.21734 -0.053,-0.0423 -0.122,-0.37845 -0.1531,-0.7469 -0.071,-0.83974 -0.2196,-1.09882 -0.9351,-1.63021 -0.9443,-0.70124 -1.5129,-1.30588 -1.8385,-1.95482 -0.2723,-0.54291 -0.301,-0.6708 -0.301,-1.34358998 0,-0.68782 0.023,-0.78622 0.312,-1.31219 0.1716,-0.31274 0.444,-0.77662002 0.6054,-1.03085002 0.2155,-0.33936 0.3043,-0.59284 0.3342,-0.95363 l 0.041,-0.4914 -0.5363,0.0486 c -0.4227,0.0383 -0.7819,0.16853 -1.6959,0.61469 -1.2885,0.62898 -1.3012,0.6336 -2.9294,1.06454 -0.6366,0.16849002 -1.5814,0.47954002 -2.0995,0.69122002 -1.4369,0.58705 -1.6516,0.61988 -3.4754,0.53136 -0.868,-0.0421 -1.9324,-0.0775 -2.3654,-0.0786 l -0.7874,-0.002 -1.0497,0.52151 c -0.8942,0.44422998 -1.134,0.52623998 -1.6184,0.55342998 -0.697,0.0391 -1.0539,-0.0977 -1.6605,-0.63640998 -0.243,-0.21584 -0.5438,-0.41802 -0.6683,-0.44927 -0.6256,-0.15702 -2.149,0.23141 -3.4187,0.87171 -1.2191,0.61477998 -1.5315,1.06032998 -1.961,2.79664998 -0.3288,1.32956 -0.6552,2.02497 -1.1756,2.50467 -0.6919,0.63777 -1.0427,0.74874 -2.3569,0.74552 -0.9976,-0.002 -1.2628,-0.0368 -2.1598,-0.27954 -2.1868,-0.59188 -3.0884,-1.15315 -3.6066,-2.24512 -0.2087,-0.43974 -0.3745,-0.67467 -0.5084,-0.72039 -0.3002,-0.1025 -3.176,-0.0659 -3.8648,0.0491 -1.1214,0.18734 -1.3954,0.61618 -1.1971,1.87353 0.062,0.39205 0.1314,1.02773 0.1546,1.41264 0.039,0.64053 0.021,0.7406 -0.2053,1.18097 -0.1687,0.32802 -0.3935,0.58943 -0.7066,0.82147 -0.4946,0.36647 -0.5286,0.45288 -0.3298,0.83728 0.1346,0.2603903 1.0584,0.7906603 1.3774,0.7906603 0.1938,0 0.5203,0.15838 0.6131,0.29741 0.035,0.0529 0.065,0.41607 0.066,0.80695 0,1.14076 -0.33,1.82161 -1.1126,2.28023 -0.5848,0.3427 -1.755,0.395 -2.618,0.11702 -0.7672,-0.24712 -1.4557,-0.66843 -1.9607,-1.19978 -0.4855,-0.51092 -0.6434,-0.75915 -0.7865,-1.23653 -0.06,-0.201 -0.1524,-0.365 -0.205,-0.36443 -0.2174,0.002 -1.0308,0.25628 -1.4807,0.46226 l -0.4823,0.22079 -0.2614,0.81706 c -0.3196,0.99904 -0.4718,2.0027 -0.4354,2.87188 l 0.027,0.65515 0.4811,0.0677 c 1.1776,0.16574 1.5125,0.97764 1.0025,2.43039 -0.5753,1.63885 -0.5788,1.45916 0.053,2.75689 0.68,1.39583 0.6691,2.01259 -0.047,2.64284 -0.5886,0.51808 -1.6624,0.77961 -2.2632,0.5512 -0.3373,-0.12825 -0.6434,-0.51538 -0.8551,-1.08142 -0.1557,-0.41616 -0.3664,-0.70042 -1.0607,-1.43043 -0.9883,-1.03919 -1.2286,-1.4729 -1.1925,-2.15247 0.022,-0.41623 0,-0.46208 -0.2344,-0.60706 -0.2886,-0.17529 -0.8884,-0.20712 -1.1945,-0.0634 -0.1105,0.0519 -0.2802,0.2192 -0.377,0.37179 -0.2176,0.34273 -0.552,0.38945 -1.3924,0.19454 -0.3221,-0.0747 -0.7159,-0.1358 -0.8752,-0.1358 -0.2713,0 -0.2932,0.0226 -0.3468,0.35794 -0.1531,0.9573 -0.8888,1.65407 -1.7464,1.65407 -1.085,0 -3.0295,-1.21028 -3.947,-2.45662 -0.2144,-0.29118 -0.5922,-1.04847 -0.9182,-1.84029 -0.7887,-1.91548 -1.1722,-2.64548 -1.6503,-3.14154 -0.3551,-0.36841 -0.4686,-0.43467 -0.7447,-0.43467 -0.4276,0 -0.9534,0.27522 -1.2081,0.63224 -0.3111,0.43615 -0.3233,1.38455 -0.037,2.90826 0.3721,1.98414 0.3037,2.70191 -0.425,4.46384 -0.4308,1.04164 -1.0953,2.02472 -2.1301,3.15166 -1.7617,1.91851 -2.0642,2.33662 -2.9096,4.02163 -0.8455,1.68513 -1.0704,2.39278 -0.8879,2.7933 0.096,0.21027 0.1419,0.22474 0.7166,0.22474 0.8792,0 0.9641,0.1024 0.9641,1.16258 0,0.94773 -0.1791,1.72968 -0.4893,2.13644 -0.5659,0.74191 -1.3196,0.78 -3.1848,0.16096 -0.6976,-0.23155 -1.3373,-0.48102 -1.4215,-0.55438 -0.1982,-0.17267 -0.1931,-0.3944 0.022,-0.96013 0.2368,-0.62295 0.2275,-1.14408 -0.027,-1.51774 -0.1111,-0.16308 -0.5345,-0.63112 -0.9409,-1.04009 -1.2302,-1.238 -1.4797,-2.00946 -1.0106,-3.12564 0.1259,-0.29975 0.229,-0.63734 0.229,-0.75019 0,-0.36898 -0.3413,-0.57848 -1.1577,-0.71064 -1.3656,-0.22105 -1.8761,-0.54176 -3.6974,-2.32286 -0.7217,-0.70575 -1.5762,-1.48893 -1.8989,-1.74039 -0.9552,-0.74434 -1.3325,-1.34561 -1.321,-2.1056 0,-0.22242 0.1268,-0.83604 0.2744,-1.36361 0.1476,-0.52756 0.3135,-1.21508 0.3687,-1.52782 0.1469,-0.83118 0.1524,-2.34647 0.01,-2.6843 -0.1541,-0.3652 -0.5066,-0.49243 -1.0357,-0.37386 -0.983,0.22029 -1.6086,0.79221 -2.6421,2.41514 -0.8956,1.40648 -1.4298,2.05664 -2.3009,2.80038 -1.0227,0.8732 -1.1359,1.15114 -1.2191,2.99461 -0.064,1.41982 -0.1397,1.81947 -0.4616,2.44201 -0.2149,0.41563 -0.827,1.08592 -1.2393,1.35714 -0.2195,0.14439 -0.5282,0.48145 -0.7434,0.81171 -0.4482,0.68786 -0.6018,0.80211 -2.0462,1.52198 -1.063,0.52973 -1.1544,0.59531 -1.3378,0.95894 -0.1083,0.21468 -0.1968,0.50187 -0.1968,0.6382 0,0.14654 -0.088,0.33566 -0.2147,0.4626 -0.1941,0.19403 -0.2859,0.21472 -0.9526,0.21472 -1.0051,0 -1.8817,-0.26759 -3.5453,-1.08228 -1.6328,-0.79961 -2.2542,-1.01722 -2.9048,-1.01722 -0.4388,0 -0.6413,0.0711 -1.7176,0.60291 -1.4881,0.73525 -2.1409,0.97564 -3.4405,1.26674 -1.3832,0.30984 -3.6496,0.66725 -4.2313,0.66725 -1.0248,0 -1.8082,-0.51392 -2.4461,-1.6048 -0.3329,-0.56927 -0.621,-0.9321 -0.74,-0.9321 -0.036,0 -0.1686,0.20667 -0.2943,0.45927 -0.3229,0.64941 -0.9831,1.34781 -2.2069,2.33464 -1.206,0.97249 -1.5779,1.36357 -1.8226,1.91672 -0.2278,0.51497 -0.1716,1.07022 0.1808,1.78612 0.2367,0.48079 0.3752,0.62916 1.0687,1.1451 1.224,0.91062 1.5456,1.46569 1.8309,3.16053 0.1859,1.1042 0.4923,2.06932 0.9449,2.97559 0.6888,1.37934 1.2611,2.00593 1.8132,1.98517 0.5035,-0.0189 0.689,0.21403 0.7268,0.91299 0.061,1.11896 -0.3511,2.49754 -0.9924,3.32346 l -0.3891,0.50112 v 0.75015 c 0,0.66572 -0.029,0.79958 -0.2528,1.18933 -0.3111,0.54241 -0.943,1.13585 -1.4332,1.34596 -0.2031,0.087 -0.8022,0.26 -1.3314,0.3843 -1.3082,0.30729 -1.485,0.39403 -2.2818,1.11875 -1.3185,1.19926 -1.6658,1.29579 -2.7918,0.77592 -0.7848,-0.3623 -1.234,-0.37431 -1.8808,-0.0503 -0.9144,0.4581 -1.3613,1.04505 -1.2884,1.69226 0.056,0.49831 0.2942,0.74415 0.9532,0.98442 0.6387,0.23287 1.179,0.69973 1.4086,1.21715 0.1511,0.3403 0.1635,0.49861 0.1085,1.37849 l -0.062,0.99404 0.2714,0.42296 c 0.3733,0.58177 0.8727,0.83544 1.9916,1.01162 1.3699,0.2157 1.9519,0.42568 2.4693,0.89088 1.2816,1.15231 2.0512,4.66048 1.3766,6.27517 -0.156,0.37332 -0.5959,0.73682 -0.9786,0.80861 -0.168,0.0315 -0.6183,0.007 -1.0006,-0.0556 -0.7792,-0.12654 -1.029,-0.0677 -1.2691,0.29877 -0.1225,0.18689 -0.1274,0.31082 -0.039,0.97638 0.1728,1.29854 -0.017,1.80959 -0.9069,2.44792 -0.6953,0.49845 -0.7163,0.71831 -0.1378,1.44341 0.5762,0.72214 0.6872,1.61021 0.3065,2.45053 -0.2596,0.5728 -0.2206,0.95993 0.1638,1.62777 0.6394,1.11076 0.755,1.37072 0.9704,2.18201 0.2733,1.02972 0.3801,1.25615 0.7319,1.55215 0.2661,0.22393 0.5124,0.29109 1.9586,0.53406 0.8457,0.1421 1.7021,0.49857 2.2749,0.94695 0.1998,0.1564 0.7767,0.67572 1.2818,1.15406 1.763,1.66922 2.4259,2.02114 3.6742,1.95055 0.6061,-0.0343 0.9861,-0.12737 2.0557,-0.50364 1.1916,-0.41918 1.3846,-0.46238 2.0995,-0.47001 0.7039,-0.007 0.8294,0.0163 1.1842,0.22492 0.4765,0.28016 0.5028,0.33346 0.875,1.7787 0.364,1.41354 0.375,1.84914 0.063,2.51892 -0.3931,0.84514 -1.4607,2.40663 -2.3739,3.47197 -0.4749,0.55409 -1.0818,1.34205 -1.3485,1.75102 -0.2667,0.40896 -0.5933,0.84495 -0.7258,0.96886 l -0.2409,0.2253 0.146,0.69056 0.146,0.690574 0.4374,0.16468 c 0.6267,0.23598 1.4621,0.15296 2.9305,-0.291224 0.953,-0.28829 1.4495,-0.38302 2.5723,-0.49075 1.632,-0.1566 2.7157,-0.41202 3.8398,-0.90504 0.8758,-0.38406 1.1668,-0.56965 2.4656,-1.57244 0.4636,-0.35789 1.1253,-0.79407 1.4707,-0.9693 0.6061,-0.3076 0.6301,-0.33195 0.6936,-0.70523 0.1094,-0.64271 0.5465,-1.38787 1.3812,-2.35491 0.4361,-0.50519 1.045,-1.33396 1.3533,-1.84171 0.6068,-0.99943 1.0671,-1.48033 2.1918,-2.29013 0.7898,-0.56864 1.2901,-1.19668 1.5708,-1.97216 0.2815,-0.77733 0.5156,-1.09715 1.2522,-1.71048 1.02,-0.8494 1.7965,-1.31666 3.9934,-2.4031 2.4811,-1.22701 3.0216,-1.41814 3.9994,-1.41425 0.6229,0.003 0.8418,0.0476 1.5154,0.31247 1.4466,0.56875 1.773,0.64765 3.0289,0.7321 1.3291,0.0894 1.7453,0.17643 2.3794,0.49776 0.6505,0.32963 1.159,0.85528 1.8478,1.91001 0.7062,1.08146 1.154,1.53107 1.5248,1.53107 0.2246,0 0.2593,-0.0456 0.4071,-0.53368 0.2576,-0.85081 0.5811,-0.94716 1.595,-0.47499 0.3104,0.14453 0.8095,0.55085 1.5309,1.2464 1.3306,1.28281 3.5899,3.21804 4.5137,3.86633 0.3829,0.26873 1.1623,0.78339 1.732,1.14368 0.8566,0.54177 1.2499,0.87089 2.2739,1.90267 1.1479,1.15655 1.2618,1.24759 1.5614,1.24759 h 0.3231 l -0.059,-0.50557 c -0.051,-0.44203 -0.036,-0.52596 0.1206,-0.66786 0.27,-0.24431 0.6104,-0.14877 2.1226,0.59558 2.8648,1.41017 4.6471,2.86523 6.2605,5.11119 1.1433,1.591554 1.3173,2.336854 1.4233,6.095384 0.1074,3.80991 0.4016,6.53846 0.8153,7.56272 0.109,0.26993 0.4677,0.90078 0.7971,1.40189 0.7072,1.07593 2.5351,4.73348 3.1716,6.34635 0.8053,2.0403 1.1453,3.61168 1.2205,5.64029 0.043,1.16331 0.029,1.33371 -0.1696,2.05576 -0.6685,2.42968 -0.7697,2.85736 -0.8187,3.46115 -0.059,0.72012 0.022,0.99155 0.3169,1.06865 0.158,0.0413 0.1777,0.005 0.1777,-0.32543 0,-0.62412 0.1198,-0.67519 1.7094,-0.72861 2.2242,-0.0748 3.1778,0.21828 3.7549,1.15378 0.2393,0.38792 0.2653,0.50049 0.2628,1.13723 0,0.44744 -0.074,0.9706 -0.1968,1.42608 -0.1067,0.39566 -0.1941,0.90276 -0.1941,1.1269 0,0.35372 0.041,0.44628 0.3115,0.70123 0.3611,0.3406 0.8041,0.48495 2.2339,0.72795 2.2165,0.37669 2.8204,0.83618 3.54,2.69333 0.3483,0.89886 0.4186,0.98623 1.8972,2.35895 0.4654,0.43204 0.6664,0.70735 0.9901,1.35593 0.4665,0.93482 0.6449,1.1558 1.1312,1.40082 0.8689,0.43784 1.0253,0.85742 0.9077,2.43549 -0.068,0.91799 -0.1089,1.11206 -0.2676,1.28096 -0.2542,0.27059 -0.6954,0.33641 -1.364,0.2035 -0.4875,-0.0969 -0.5775,-0.0939 -0.6949,0.0235 -0.1901,0.19011 -0.086,0.51846 0.2991,0.94483 0.3196,0.35381 0.7051,0.60653 0.9185,0.60216 0.062,-0.001 0.2799,-0.23613 0.4831,-0.52189 0.4594,-0.64605 0.8855,-0.88367 1.5909,-0.88705 0.6115,-0.003 0.9736,0.089 2.2824,0.57976 0.5533,0.20744 1.3575,0.50744 1.7872,0.66666 0.4296,0.15922 1.3153,0.6026 1.9682,0.98529 0.653,0.38268 1.5366,0.8458 1.9636,1.02914 1.255,0.53884 1.5022,0.79933 2.0593,2.1699 0.2172,0.5345 0.3776,0.76236 0.8926,1.26845 0.7161,0.70355 0.8513,0.9644 0.9242,1.78254 0.06,0.66772 0.1491,0.87458 0.7026,1.62127 0.219,0.29552 0.6116,0.97905 0.8723,1.51895 0.3326,0.68862 0.5691,1.05991 0.7922,1.24382 0.3148,0.2595 0.4529,0.29971 1.8052,0.5256 0.6883,0.11496 1.187,0.34623 1.9351,0.89739 0.2887,0.21267 1.017,0.71598 1.6184,1.11847 2.1828,1.46084 2.7583,2.23735 3.6313,4.89953 0.6232,1.90069 0.9397,2.31469 2.4048,3.14565 1.102,0.62505 1.5135,0.90373 2.1526,1.4578 0.8359,0.72471 2.1585,2.34782 3.2701,4.01324 0.7975,1.19467 1.9075,2.65229 2.1317,2.79916 0.1226,0.0804 0.5608,0.17611 1.026,0.22425 0.9999,0.10344 1.6222,0.36966 2.2232,0.95111 0.2406,0.23273 0.5234,0.46701 0.6285,0.52064 0.1051,0.0536 0.5972,0.0975 1.0935,0.0976 0.8255,6e-5 0.9509,0.023 1.471,0.26873 0.7365,0.34798 1.6056,1.00946 2.5495,1.9405 0.9053,0.89298 1.1402,1.2734 1.3868,2.24596 0.2275,0.89713 0.3585,1.16259 0.6904,1.39895 0.3715,0.26453 0.5062,0.22754 0.6912,-0.18993 0.2276,-0.5132 0.3643,-0.6007 1.0573,-0.67678 0.4892,-0.0537 0.74956,-0.14794 1.37859,-0.49902 0.93166,-0.51998 1.15659,-0.61208 1.77719,-0.72767 0.61848,-0.1152 1.80046,0.0748 3.06101,0.49211 1.21877,0.40346 1.74213,0.71831 2.63582,1.5857 0.41247,0.40034 0.83565,0.78792 0.9404,0.86129 0.1859,0.13021 0.19044,0.12522 0.19044,-0.20969 0,-0.64059 0.45689,-0.97824 1.62645,-1.20202 1.21599,-0.23266 2.51375,-0.10515 3.08743,0.30335 0.12704,0.0905 0.4273,0.40954 0.66724,0.70907 0.25404,0.31714 0.83815,0.84786 1.39852,1.2707 1.51666,1.14444 2.31169,2.06045 3.67859,4.23837 1.35459,2.15828 2.46358,4.64943 3.00972,6.76075 l 0.25379,0.98116 0.42177,-0.0294 c 0.23197,-0.0162 0.85479,-0.10663 1.38404,-0.20101 0.52925,-0.0944 1.29688,-0.22986 1.70585,-0.30107 0.89945,-0.15662 2.33264,-0.17574 2.9305,-0.0391 0.24054,0.055 0.68554,0.22215 0.9889,0.3715 1.51635,0.7465 2.94922,3.24894 2.43247,4.24822 -0.2175,0.4206 -0.46001,0.60963 -1.37248,1.06979 -0.92525,0.4666 -1.32404,0.84245 -1.4933,1.40742 -0.0978,0.32627 -0.0922,0.37385 0.0565,0.48258 0.272,0.19889 1.29007,0.14299 2.66842,-0.14653 0.69764,-0.14654 1.84567,-0.31865 2.55117,-0.38246 0.88245,-0.0798 1.38712,-0.16718 1.61729,-0.27995 0.21665,-0.10615 0.57247,-0.46115 1.00952,-1.00719 0.7304,-0.91254 1.10179,-1.1989 1.69978,-1.31062 1.14317,-0.21356 2.26696,0.44644 2.84638,1.67167 0.14818,0.31333 0.42566,1.17986 0.61663,1.92562 0.19097,0.74576 0.46232,1.57244 0.603,1.83706 0.14068,0.26463 0.57348,0.83543 0.96178,1.26845 1.25644,1.40116 1.68279,2.20725 1.69207,3.19917 0.005,0.51351 -0.0287,0.63012 -0.31444,1.09349 -0.90094,1.46117 -1.00341,3.16866 -0.24508,4.08388 0.35241,0.42534 0.75998,0.69687 2.09579,1.39626 3.48379,1.82401 5.00857,2.72444 6.56094,3.87443 1.95881,1.45109 2.13006,1.48193 3.89282,0.70113 0.62547,-0.27705 1.5112,-0.60057 1.96828,-0.71893 2.41075,-0.62429 4.2747,0.31357 5.51106,2.77291 0.69758,1.38763 1.12518,2.89248 1.83049,6.44214 0.7197,3.62203 1.22322,4.95486 3.928,10.3976 2.52738,5.08574 3.04809,6.3845 3.80979,9.50222 0.76694,3.13921 1.02026,3.76374 2.46653,6.08102 1.54002,2.46751 1.96322,3.46476 1.96094,4.62096 -0.002,1.05258 -0.41639,2.02481 -1.17858,2.76562 -0.87938,0.8547 -1.70323,1.27013 -4.2258,2.13089 -1.87679,0.6404 -2.79521,1.06323 -3.07098,1.4138 -0.24211,0.3078 -0.23564,0.69839 0.0308,1.85693 0.69508,3.02303 0.65276,3.96634 -0.27937,6.22657 -0.82405,1.99816 -0.97177,2.46965 -1.06823,3.40974 -0.0979,0.95414 -0.26231,1.38092 -0.75337,1.95581 -0.45086,0.52783 -0.89557,0.80811 -1.89422,1.19384 -0.51026,0.1971 -0.97649,0.41708 -1.03605,0.48885 -0.30146,0.36323 0.63211,7.1305 1.143,8.28546 0.6265,1.41631 1.85816,1.67234 4.63574,0.96364 z M 670.73341,48.636956 c 0.3293,-0.17504 0.4766,-0.29905 0.421,-0.35457 -0.1457,-0.14577 -0.7321,-0.0941 -1.1956,0.10536 -0.3441,0.14805 -0.4663,0.25472 -0.5468,0.47737 -0.057,0.15769 -0.1036,0.30966 -0.1036,0.3377 0,0.077 0.8521,-0.2614 1.425,-0.56586 z m 84.45626,250.470984 c -1.50701,-0.3772 -2.26108,-1.5115 -2.67782,-4.02812 -0.58991,-3.5623 -0.84204,-5.93782 -0.70814,-6.67182 0.10925,-0.59883 0.52253,-0.97433 1.45142,-1.31872 1.06706,-0.39563 1.45269,-0.61431 1.76135,-0.99885 0.36894,-0.45963 0.4229,-0.61668 0.50061,-1.45702 0.0808,-0.87343 0.27081,-1.49949 0.94284,-3.10592 1.07561,-2.57119 1.09491,-3.01684 0.28981,-6.69216 -0.24075,-1.09904 -0.14307,-1.6507 0.4019,-2.26982 0.44542,-0.50602 1.35773,-0.94358 3.48497,-1.67143 0.93821,-0.32102 1.95206,-0.69494 2.25299,-0.83093 2.34089,-1.05787 2.97871,-2.73465 1.87833,-4.938 -0.12014,-0.24057 -0.67281,-1.16566 -1.22814,-2.05577 -1.53611,-2.46208 -1.79136,-3.0833 -2.60496,-6.33984 -0.83365,-3.33678 -1.10901,-4.02249 -3.88273,-9.66884 -2.77597,-5.65092 -3.09849,-6.5207 -3.93879,-10.62199 -0.81439,-3.97493 -1.31826,-5.53252 -2.19235,-6.77717 -0.72605,-1.03386 -1.55616,-1.49634 -2.6858,-1.49634 -0.77922,0 -1.43674,0.18724 -2.86367,0.81546 -1.20281,0.52956 -1.23878,0.53921 -2.01202,0.53983 -0.6935,6.6e-4 -0.84925,-0.0298 -1.3072,-0.25462 -0.28593,-0.1404 -0.92459,-0.5638 -1.41925,-0.9409 -0.49465,-0.3771 -1.22516,-0.89544 -1.62335,-1.15188 -0.77409,-0.49851 -3.9129,-2.24171 -5.14169,-2.85553 -2.04537,-1.02174 -2.85989,-1.90052 -3.05797,-3.29922 -0.15016,-1.06028 0.15727,-2.50875 0.7366,-3.47059 0.18505,-0.30723 0.30935,-0.62764 0.30935,-0.79742 0,-0.48681 -0.55298,-1.43927 -1.32443,-2.28122 -1.24429,-1.35799 -1.41343,-1.70269 -2.04159,-4.16059 -0.41644,-1.62947 -0.99486,-2.351 -1.88469,-2.351 -0.41234,0 -0.64538,0.18452 -1.25357,0.99262 -0.94786,1.25941 -1.43622,1.50528 -3.24689,1.63468 -0.63227,0.0452 -1.58595,0.18065 -2.11926,0.30104 -2.64971,0.59814 -3.90639,0.47736 -4.3724,-0.42022 -0.32975,-0.63513 -0.0778,-1.63612 0.59805,-2.37556 0.34239,-0.37462 0.63353,-0.57391 1.34857,-0.92311 0.87425,-0.42696 0.91187,-0.45686 0.91105,-0.72406 -9.9e-4,-0.35591 -0.31729,-1.0289 -0.75232,-1.60123 -0.62612,-0.82372 -1.22661,-1.19315 -2.21486,-1.36262 -0.71058,-0.12185 -1.64268,-0.0323 -3.43233,0.32983 -0.59351,0.12008 -1.55209,0.24194 -2.13019,0.27078 -0.90251,0.045 -1.06763,0.0325 -1.16815,-0.0886 -0.0644,-0.0776 -0.19375,-0.48641 -0.28747,-0.9085 -0.6212,-2.79783 -2.01735,-5.82276 -3.93614,-8.52814 -0.84068,-1.1853 -1.43794,-1.80238 -2.60697,-2.69353 -0.59458,-0.45324 -1.20104,-1.00533 -1.47388,-1.34175 -0.31919,-0.39356 -0.56135,-0.60387 -0.77744,-0.67519 -0.3286,-0.10845 -2.03573,-0.074 -2.32296,0.0469 -0.14211,0.0598 -0.14054,0.0791 0.0234,0.28748 0.28663,0.36438 0.0615,0.79071 -0.57092,1.08112 -0.83672,0.38422 -1.47237,0.14211 -2.66776,-1.01611 -0.66325,-0.64261 -1.00558,-0.90158 -1.50137,-1.13577 -0.88302,-0.41708 -2.24916,-0.77112 -3.01388,-0.78104 -0.60202,-0.008 -0.65933,0.0109 -1.77851,0.58242 -0.91523,0.46732 -1.23765,0.59048 -1.54578,0.59048 -0.29504,0 -0.40046,0.0371 -0.43516,0.15309 -0.1701,0.56868 -0.7301,0.98414 -1.3266,0.98414 -0.5818,0 -1.4784,-0.65878 -1.7898,-1.31509 -0.079,-0.1668 -0.227,-0.61319 -0.3285,-0.99198 -0.1015,-0.3788 -0.2472,-0.81182 -0.3237,-0.96228 -0.1665,-0.32726 -1.3525,-1.4885 -2.0827,-2.03913 -0.9328,-0.70345 -1.1178,-0.7707 -2.0562,-0.74743 -1.0972,0.0272 -1.492,-0.10865 -2.2028,-0.75815 -0.305,-0.27867 -0.649,-0.55673 -0.7643,-0.6179 -0.1154,-0.0612 -0.6153,-0.16087 -1.111,-0.22154 -1.4741,-0.18045 -1.7064,-0.38677 -3.713,-3.29797 -1.393,-2.02099 -2.0104,-2.80207 -2.9256,-3.70129 -0.6642,-0.65259 -1.0013,-0.89958 -1.9703,-1.44341 -2.0083,-1.1271 -2.4884,-1.72996 -3.2404,-4.0687 -0.2009,-0.62497 -0.5069,-1.41187 -0.6799,-1.74866 -0.4297,-0.83634 -1.3006,-1.68875 -2.5856,-2.5306 -0.5716,-0.37444 -1.2149,-0.8149 -1.4296,-0.9788 -0.7643,-0.58339 -1.0807,-0.71805 -2.015,-0.85745 -1.6379,-0.24439 -2.1943,-0.65668 -2.8846,-2.13765 -0.2164,-0.46406 -0.6501,-1.21275 -0.9639,-1.66375 -0.6052,-0.86983 -0.8093,-1.37367 -0.8093,-1.99758 0,-0.49555 -0.1544,-0.7791 -0.6459,-1.18657 -0.5189,-0.43012 -0.8324,-0.9041 -1.1876,-1.79574 -0.3332,-0.83652 -0.5324,-1.02724 -1.4219,-1.36129 -0.323,-0.12131 -1.0255,-0.48068 -1.5611,-0.7986 -1.2576,-0.74653 -2.021,-1.13074 -2.6192,-1.31823 -0.2647,-0.0829 -0.9732,-0.33842 -1.5747,-0.56774 -1.2184,-0.46461 -1.8085,-0.58879 -2.0876,-0.43939 -0.1007,0.0539 -0.3391,0.32767 -0.5297,0.60836 -0.5494,0.80902 -1.0756,0.97045 -1.9049,0.58436 -1.3507,-0.62888 -2.0952,-2.13801 -1.4919,-3.02433 0.4209,-0.61857 0.9341,-0.78162 1.826,-0.58023 l 0.3171,0.0716 0.062,-0.74353 c 0.071,-0.84581 0.01,-1.04535 -0.3832,-1.18094 -0.4951,-0.17259 -1.0142,-0.76095 -1.4358,-1.62759 -0.4143,-0.85148 -0.6344,-1.11644 -1.6985,-2.04481 -0.707,-0.61681 -0.9386,-0.96473 -1.3892,-2.0868 -0.5659,-1.40915 -0.8007,-1.56911 -2.861,-1.94906 -1.9555,-0.36061 -2.6775,-0.73944 -3.0876,-1.62012 -0.2633,-0.56558 -0.2609,-1.00488 0.012,-2.13051 0.2689,-1.11001 0.2798,-1.60915 0.042,-1.94259 -0.3057,-0.42935 -1.4487,-0.66884 -2.6656,-0.55856 l -0.6272,0.0568 0.01,0.36109 c 0.01,0.32794 -0.021,0.37513 -0.2994,0.51404 -0.1907,0.0953 -0.504,0.15246 -0.831,0.15165 -0.6833,-0.002 -1.1438,-0.25334 -1.4428,-0.78838 -0.1869,-0.33461 -0.2177,-0.49827 -0.2131,-1.13459 0.01,-0.83453 0.064,-1.12078 0.6264,-3.10407 l 0.3966,-1.39822 -0.05,-1.40111 c -0.059,-1.64326 -0.2347,-2.57191 -0.801,-4.22511 -0.628,-1.83327 -2.3643,-5.45217 -3.3298,-6.94003 -1.0313,-1.58916 -1.174,-1.97771 -1.4387,-3.91741 -0.2557,-1.87384 -0.3473,-3.16321 -0.4035,-5.67807 -0.062,-2.77645 -0.1761,-3.57017 -0.6529,-4.54311 -0.7918,-1.615974 -2.7041,-3.598494 -4.5671,-4.734994 -0.6197,-0.37798 -2.1736,-1.17965 -2.1955,-1.13263 -0.2235,0.47901 -0.9256,0.8593 -1.5812,0.85646 -0.7423,-0.003 -1.1126,-0.24197 -2.3645,-1.52444 -0.8872,-0.90877 -1.3451,-1.29979 -2.0594,-1.75837 -1.5593,-1.0011 -2.1048,-1.37374 -2.6589,-1.81626 -1.0687,-0.85343 -2.8309,-2.40087 -3.8141,-3.34932 -0.5536,-0.53397 -1.0941,-1.01706 -1.2012,-1.07355 -0.2048,-0.10808 -0.2231,-0.0801 -0.3055,0.46669 -0.058,0.38628 -1.0217,0.7491 -1.6119,0.607 -0.7599,-0.18293 -1.291,-0.68176 -2.1656,-2.03375 -0.9746,-1.50671 -1.3514,-1.73009 -3.135,-1.85847 -1.5168,-0.10916 -1.9284,-0.19655 -3.1014,-0.6584 -1.2142,-0.4781 -1.5762,-0.53239 -2.3061,-0.34577 -0.7557,0.19326 -4.4672,2.02246 -5.5067,2.71402 -1.2582,0.83706 -1.7661,1.36459 -2.005,2.08226 -0.3104,0.93267 -1.0292,1.80244 -2.1502,2.6017 -0.8157,0.58157 -1.1571,0.94586 -1.6394,1.74958 -0.5182,0.86349 -0.7526,1.17883 -1.6118,2.16874 -0.744,0.85724 -0.9857,1.31718 -1.0531,2.0045 -0.028,0.27879 -0.083,0.57244 -0.1244,0.65255 -0.041,0.0801 -0.3264,0.22943 -0.6341,0.33182 -0.5895,0.19618 -1.3563,0.68592 -2.3729,1.51554 -1.0836,0.88427 -2.8795,1.68983 -4.5052,2.020924 -0.3609,0.0735 -1.1724,0.17526 -1.8033,0.22617 -0.9236,0.0745 -1.4095,0.16964 -2.4931,0.48811 -1.7757,0.52179 -2.4132,0.57225 -3.368,0.26655 -0.9495,-0.30399 -1.1133,-0.48082 -1.3401,-1.446884 -0.3029,-1.29031 -0.2436,-1.63514 0.3878,-2.25135 0.1443,-0.14088 0.4002,-0.4849 0.5686,-0.76448 0.1684,-0.27958 0.7703,-1.06478 1.3377,-1.7449 1.0039,-1.20353 2.1463,-2.88434 2.3421,-3.44604 0.081,-0.23343 0.051,-0.46488 -0.1896,-1.44001 -0.1577,-0.63903 -0.3234,-1.21108 -0.3683,-1.27122 -0.1784,-0.23915 -0.9999,-0.12353 -2.3374,0.32899 -3.2198,1.08934 -4.2944,0.7978 -7.143,-1.93782 -1.2636,-1.2135 -1.7455,-1.45924 -3.2512,-1.65801 -0.9567,-0.12629 -1.6057,-0.36694 -2.0346,-0.75436 -0.4959,-0.44801 -0.6512,-0.75238 -0.9516,-1.86418 -0.2011,-0.74405 -0.381,-1.1846 -0.6958,-1.70344 -0.763,-1.2576 -0.9012,-2.11169 -0.4772,-2.94837 0.2917,-0.57574 0.2446,-0.90084 -0.2176,-1.49985 -0.4295,-0.55668 -0.5351,-0.82543 -0.5351,-1.36179 0,-0.68682 0.1319,-0.92109 0.795,-1.41269 0.3326,-0.24656 0.6127,-0.49377 0.6224,-0.54936 0.01,-0.0556 0.019,-0.63819 0.022,-1.29469 v -1.19362 l 0.2703,-0.33727 c 0.5547,-0.69225 1.1364,-0.86078 2.4117,-0.69877 0.557,0.0708 0.5875,0.065 0.6998,-0.13216 0.082,-0.14319 0.1141,-0.51346 0.1064,-1.21217 -0.021,-1.98101 -0.7252,-3.6696 -1.69,-4.05564 -0.1886,-0.0754 -0.8248,-0.21941 -1.4139,-0.31992 -1.6393,-0.27969 -2.3364,-0.69964 -2.9248,-1.76193 -0.2541,-0.45879 -0.2584,-0.48784 -0.2369,-1.61711 0.026,-1.3528 0.02,-1.36339 -0.976,-1.78345 -0.6931,-0.29235 -0.9373,-0.4948 -1.263,-1.04693 -0.3296,-0.55861 -0.327,-1.42611 0.01,-2.06517 0.5075,-0.97328 1.7678,-1.77406 2.9129,-1.85072 0.5568,-0.0373 0.6861,-0.0115 1.3788,0.27527 0.4204,0.17403 0.7934,0.31639 0.8289,0.31636 0.036,-3e-5 0.4386,-0.33945 0.8957,-0.75426 0.964,-0.87487 1.3599,-1.08182 2.6548,-1.38779 1.4461,-0.3417 1.683,-0.46502 2.1688,-1.12888 0.2332,-0.31864 0.2456,-0.37793 0.1946,-0.92674 -0.069,-0.73761 0.032,-1.04885 0.5384,-1.66353 0.4344,-0.52742 0.8294,-1.57055 0.8294,-2.19017 0,-0.31233 -0.029,-0.35638 -0.3139,-0.47538 -0.5105,-0.21329 -0.9437,-0.61105 -1.4273,-1.31063 -0.834,-1.20652 -1.3906,-2.63721 -1.7093,-4.39376 -0.2721,-1.49982 -0.4318,-1.77914 -1.4666,-2.5647 -0.8818,-0.66935 -1.0305,-0.8411 -1.3855,-1.59969 -0.3899,-0.83323 -0.4821,-1.48614 -0.3067,-2.17106 0.2504,-0.97727 0.7499,-1.57772 2.379,-2.85942 1.0254,-0.80681 1.6681,-1.51204 1.9301,-2.11785 0.4059,-0.93849 0.386,-0.91602 0.8388,-0.94524 0.3207,-0.0207 0.5142,0.0279 0.8595,0.21584 0.3756,0.20443 0.5397,0.38593 1.0439,1.15472 0.3291,0.50169 0.7087,0.98494 0.8435,1.0739 0.355,0.23405 1.1117,0.20923 2.9151,-0.0956 2.5236,-0.42659 3.5665,-0.74488 5.0284,-1.53468 1.0904,-0.58908 1.7184,-0.77243 2.4494,-0.71512 0.8011,0.0628 1.1864,0.19907 3.0181,1.06733 1.5991,0.75804 2.2324,0.98305 2.8802,1.02327 l 0.3871,0.024 0.1815,-0.46495 c 0.2262,-0.57937 0.7548,-1.1299 1.3713,-1.42836 0.2598,-0.12574 0.7778,-0.37636 1.1511,-0.55694 0.625,-0.30236 0.7166,-0.38243 1.158,-1.01237 0.3133,-0.44702 0.6088,-0.75992 0.853,-0.90302 0.3915,-0.22941 0.9446,-0.88147 1.1225,-1.32343 0.057,-0.14273 0.1344,-0.88936 0.1709,-1.65918 0.1033,-2.18043 0.3024,-2.63872 1.6663,-3.83433 0.8257,-0.72384 1.2062,-1.19139 1.9548,-2.40208 1.3325,-2.15502 2.5467,-3.08012 4.0425,-3.08012 0.8609,0 1.4658,0.43437 1.7257,1.23926 0.2999,0.92837 0.1347,3.018 -0.379,4.79662 -0.1459,0.50509 -0.2651,0.99716 -0.2649,1.09349 0,0.30931 0.3195,0.7121 0.9768,1.23379 0.3527,0.27992 1.2514,1.1016 1.9972,1.82594 1.5704,1.52535 2.004,1.79966 3.1648,2.00211 0.8856,0.15444 1.1726,0.28516 1.5368,0.7 0.5316,0.60545 0.57,1.25014 0.1342,2.25485 l -0.2241,0.5169 0.1654,0.36868 c 0.094,0.20894 0.5306,0.73824 1.0082,1.22161 1.056,1.06864 1.255,1.44502 1.2382,2.34208 -0.01,0.36085 -0.025,0.75185 -0.041,0.86888 -0.026,0.19772 0.034,0.23309 0.8464,0.49975 1.5138,0.4966 1.8018,0.37934 1.8662,-0.7599 l 0.033,-0.58609 -0.3839,-0.0576 c -0.747,-0.11203 -1.2249,-0.58073 -1.3338,-1.30817 -0.1173,-0.78379 0.2617,-1.8973 1.3083,-3.84367 0.7505,-1.3958 1.0723,-1.83387 2.3585,-3.21123 1.2559,-1.34486 1.7374,-1.9907 2.1849,-2.93055 0.8467,-1.7781 0.9404,-2.47225 0.5668,-4.199 -0.1494,-0.69092 -0.209,-1.24596 -0.2111,-1.96829 0,-0.92907 0.016,-1.04434 0.2431,-1.50722 0.5228,-1.06447 1.772,-1.66975 2.8375,-1.37477 0.3126,0.0865 0.5468,0.24659 0.9449,0.64559 0.6379,0.63931 0.989,1.25347 1.697,2.96853 0.687,1.66431 0.901,2.08144 1.2868,2.50848 0.7358,0.81453 2.1384,1.65803 2.7572,1.65816 0.4091,9e-5 0.6547,-0.28959 0.7284,-0.85901 0.092,-0.7152 0.1276,-0.79686 0.4044,-0.93999 0.4316,-0.22317 1.1198,-0.25479 1.8185,-0.0836 l 0.6211,0.1522 0.3443,-0.31105 c 0.1894,-0.17108 0.5138,-0.35692 0.7211,-0.41297 0.8157,-0.22067 1.9604,0.10778 2.4648,0.70727 0.2029,0.24107 0.2301,0.34966 0.2301,0.91713 v 0.64368 l 0.8866,0.9461 c 0.6783,0.72382 0.9543,1.09298 1.1746,1.57124 0.1584,0.34383 0.3257,0.6484 0.3717,0.67684 0.121,0.0748 0.8788,-0.17001 1.0745,-0.34719 0.2486,-0.22495 0.2107,-0.41762 -0.2904,-1.47622 -0.6316,-1.3345 -0.6525,-1.73268 -0.1623,-3.09435 0.4894,-1.35934 0.4959,-1.32679 -0.2611,-1.32679 -0.7533,0 -0.9226,-0.0821 -1.0396,-0.50403 -0.3584,-1.29217 -0.068,-3.723 0.6315,-5.29346 0.2583,-0.57956 0.2776,-0.59888 0.8857,-0.88568 0.8861,-0.41793 1.5701,-0.59472 2.3562,-0.60894 0.7828,-0.0142 0.9321,0.0877 0.9355,0.63855 0.01,0.91406 1.0247,1.90315 2.3162,2.24817 0.953,0.25457 1.6824,0.0324 1.9693,-0.59984 0.094,-0.2061 0.171,-0.47753 0.172,-0.60316 0,-0.19754 -0.065,-0.254 -0.4919,-0.41742 -1.1164,-0.42721 -1.6931,-1.11208 -1.6931,-2.0105003 0,-0.59608 0.1574,-0.88208 0.7082,-1.28634 0.6614,-0.48556 0.7337,-0.71878 0.5487,-1.77024 -0.2365,-1.34348 -0.2107,-1.99225 0.1034,-2.60854 0.3342,-0.65567 0.8399,-1.01264 1.6727,-1.18069 0.6518,-0.13153 4.1729,-0.17264 4.5979,-0.0537 0.3945,0.1104 0.8491,0.58263 1.1654,1.21081 0.4365,0.86684 0.9201,1.1692 2.6484,1.65609 2.4368,0.68646 3.5645,0.49822 4.1648,-0.69518 0.1111,-0.22084 0.3249,-0.88957 0.475,-1.48606 0.3624,-1.43931 0.5977,-1.92789 1.2237,-2.54038998 0.7456,-0.72961 2.3625,-1.48557 3.8617,-1.8056 1.1962,-0.25533002 1.8809,-0.10608002 2.6663,0.5813 0.6731,0.58896 0.9591,0.58928 2.1288,0.002 0.4704,-0.23606 1.0231,-0.47441 1.2283,-0.52966 0.4542,-0.12231002 1.8709,-0.12473002 3.3175,-0.006 1.3098,0.10782 2.012,0.0226 2.9086,-0.35283002 0.9948,-0.41658 1.5019,-0.58413 2.8896,-0.95478 0.95,-0.25375 1.5648,-0.48383 2.4201,-0.90566 1.249,-0.61606 2.0137,-0.81133 2.892,-0.73849 0.5694,0.0472 0.669,0.1497 0.8111,0.83393 0.1885,0.90817 0,1.57992 -0.8244,2.90336002 -0.3496,0.56269 -0.4051,0.71598 -0.4051,1.11827 0,0.82777998 0.4208,1.46023998 1.4871,2.23494998 1.0322,0.74994 1.4492,1.33444 1.5482,2.17018 0.048,0.4086 0.072,0.441 0.4296,0.59935 0.5571,0.24643 1.1789,0.87445 1.8675,1.88603 0.9499,1.39556 1.6231,1.90683 3.2718,2.4851203 1.7047,0.59792 3.1239,0.87434 7.4482,1.45071 3.522,0.46943 5.4425,0.80175 7.07983,1.22506 1.51322,0.39122 2.69116,0.51209 4.46742,0.45843 3.46938,-0.10481 5.32154,0.30483 6.58042,1.45538 0.68079,0.6222 0.94215,1.11052 0.94215,1.76029 0,1.12082 -0.82237,1.93251 -3.36731,3.32358 -1.55522,0.85009 -1.98019,1.15967 -2.52989,1.84298 -0.87883,1.09246 -1.18736,2.01078 -0.84903,2.52714 0.15046,0.22963 0.29477,0.26774 1.34796,0.35593 1.21973,0.10215 1.74224,0.39044 2.32803,1.28447 0.12211,0.18636 0.23585,0.23049 0.72253,0.28035 0.96428,0.0988 1.28249,0.3783 1.39908,1.22886 0.0436,0.31834 0.01,0.48238 -0.17856,0.86751 -0.26263,0.53679 -0.57159,0.81096 -1.85452,1.64565 -1.04418,0.67935 -1.28538,0.98118 -1.474,1.84443 -0.045,0.20598 -0.0171,0.25557 0.1877,0.33343 0.13231,0.0503 0.65872,0.0793 1.16981,0.0644 1.23747,-0.036 1.25026,-0.0251 1.19681,1.0191 -0.0323,0.63087 -0.12256,1.04258 -0.44702,2.03893 -0.48632,1.4934 -0.51337,1.91235 -0.16893,2.61579 0.37598,0.76785 0.98817,1.19026 2.38676,1.64683 1.62617,0.53087 2.40626,1.03347 3.195,2.0585 1.6778,2.18043 1.78656,4.30759 0.26042,5.09342 -0.40886,0.21053 -1.62919,0.30072 -2.70492,0.19992 -0.56938,-0.0533 -0.68934,-0.0935 -0.8046,-0.26943 -0.12372,-0.18882 -0.11967,-0.26915 0.0468,-0.92744 0.10077,-0.39849 0.18226,-1.00128 0.18226,-1.34826 v -0.62756 l -0.38745,-0.14796 c -0.45881,-0.17523 -1.01797,-0.58355 -1.80532,-1.31833 -0.76047,-0.7097 -1.12467,-0.98066 -1.41575,-1.0533 -0.23104,-0.0577 -0.24064,-0.0467 -0.24249,0.27749 -0.002,0.43375 -0.26027,0.9994 -0.56458,1.23877 -0.76259,0.59986 -1.9835,0.23637 -4.24485,-1.26377 -1.61119,-1.06884 -1.54211,-1.02945 -2.259,-1.28804 -0.75768,-0.27332 -1.6155,-0.3094 -2.08285,-0.0876 -0.18221,0.0865 -0.39191,0.29858 -0.53271,0.53885 -0.1997,0.3408 -0.2391,0.52843 -0.2813,1.34089 -0.053,1.02565 -0.1117,1.14061 -0.6396,1.26094 -0.2151,0.049 -0.2407,0.0934 -0.2411,0.41966 0,0.80019 -0.3271,1.39074 -0.9242,1.67411 -0.173,0.0821 -0.695,0.22496 -1.1602,0.31757 -1.5368,0.30595 -1.7245,0.40284 -7.3191,3.77745 -2.2264,1.34294 -3.3827,2.00093 -4.1152,2.34186 -1.4946,0.69556 -2.7252,0.89729 -3.1123,0.5102 -0.1668,-0.16684 -0.1815,-0.2592 -0.1466,-0.92361 l 0.039,-0.73824 -0.3563,0.059 c -0.4682,0.0775 -0.5833,0.14399 -0.9272,0.53567 -0.3931,0.44776 -0.7073,1.18518 -1.0369,2.43355 -0.3243,1.22846 -0.6687,1.98423 -1.0903,2.39252 l -0.3026,0.29302 0.5054,0.50537 c 0.6938,0.69379 1.0288,1.39905 1.1437,2.40775 0.223,1.9572 0.2512,2.08689 0.6121,2.82179 0.429,0.87329 0.7227,1.11501 2.4284,1.99878 1.7879,0.9263 2.4246,1.50121 2.8133,2.54017 0.322,0.86054 0.2317,1.18362 -0.4312,1.54216 -0.2825,0.15282 -0.2859,0.16195 -0.2409,0.65609 0.025,0.27561 0.1127,0.80875 0.1947,1.18474 0.1937,0.88789 0.1242,1.57727 -0.179,1.77591 -0.1665,0.10911 -0.2882,0.11976 -0.6025,0.0528 -0.4272,-0.0911 -0.4878,-0.0706 -0.4878,0.16545 0,0.24797 -0.3468,0.42763 -0.8286,0.4293 -1.0966,0.004 -2.288,0.45333 -2.727,1.02893 -0.5164,0.67707 -0.5996,1.0586 -0.5952,2.73115 0,1.24973 0.055,1.87632 0.2809,3.41169 0.1524,1.03444 0.3185,2.41224 0.3692,3.06177 0.1241,1.59034 0.2902,2.51551 0.646,3.59788 1.4653,4.45709 5.3053,8.53231 11.3402,12.03485 0.7457,0.43282 2.0046,1.15414 2.7974,1.60293 3.1106,1.760784 3.9307,2.364914 5.77452,4.254094 2.33539,2.39279 3.12246,3.1507 3.69955,3.5625 0.3154,0.22507 1.42225,0.81966 2.45966,1.32132 2.16538,1.04711 2.92649,1.53141 3.73232,2.37489 1.07644,1.12674 1.53167,1.98736 2.4463,4.62484 0.35039,1.01039 0.85237,2.32913 1.11552,2.93055 1.8016,4.11745 2.90503,7.9035 4.26395,14.63025 0.53577,2.65206 1.02853,4.05259 2.36645,6.72583 1.58397,3.16486 2.76662,4.62844 6.37971,7.89509 2.75146,2.48765 3.87321,3.66699 4.75291,4.99692 0.80234,1.21298 1.38757,1.9047 1.78566,2.11056 0.13506,0.0698 0.6689,0.27863 1.18631,0.46398 1.37634,0.49304 1.69517,0.66366 2.33404,1.24907 0.68836,0.63076 1.10069,1.19538 2.06288,2.82481 0.87538,1.48243 1.22183,1.95994 1.8535,2.55471 0.56883,0.53561 0.78373,0.60632 1.44136,0.47425 1.08332,-0.21757 1.58312,-0.0504 2.27118,0.75941 0.39319,0.46278 2.31598,1.7886 3.20633,2.21086 0.85858,0.40719 1.49369,0.47461 4.43104,0.4704 3.41471,-0.005 4.28645,-0.10537 9.7974,-1.12914 5.43144,-1.009 9.01271,-0.978 11.13704,0.0964 1.21703,0.61552 1.90972,1.26438 2.36735,2.21754 0.24371,0.5076 0.2729,0.65309 0.27206,1.35592 -6.6e-4,0.67434 -0.0355,0.86152 -0.24175,1.30444 -0.2423,0.5203 -0.9735,1.48478 -1.43338,1.89068 -0.13618,0.1202 -0.7003,0.60886 -1.25361,1.08593 -1.94595,1.67782 -2.70586,2.54574 -3.28907,3.75657 -0.71882,1.49236 -0.55911,2.47137 0.56854,3.48522 0.93295,0.8388 2.06187,1.38441 5.30117,2.56206 3.77714,1.37318 5.02947,1.89584 9.79277,4.08703 5.60816,2.57984 6.82766,3.08276 10.98353,4.52954 3.55188,1.23652 5.64359,2.15927 7.2118,3.18149 1.42591,0.92945 1.84368,1.43503 2.84952,3.44845 0.68623,1.37364 1.08046,1.83756 1.88437,2.21747 0.66852,0.31592 1.45481,0.41251 2.7508,0.33788 1.51397,-0.0872 2.26334,0.017 3.10551,0.43161 0.38491,0.18951 1.09352,0.6265 1.57462,0.97109 1.1485,0.82253 1.3993,0.94234 3.1055,1.48359 2.1846,0.69298 2.4966,0.88501 4.6081,2.83671 1.3402,1.23872 2.3295,2.02041 3.8043,3.00593 1.5907,1.06292 2.4812,1.81969 4.0534,3.44449 3.0622,3.16463 4.0227,5.35755 4.017,9.1709 0,1.73789 -0.018,1.88723 -0.604,5.72988 -0.2127,1.39529 -0.4306,3.00928 -0.4844,3.58664 -0.1273,1.36728 -0.1402,1.38163 -1.2881,1.42774 -1.4861,0.0597 -3.12,-0.35204 -4.9647,-1.25101 -2.2894,-1.11571 -4.2995,-2.61098 -4.6763,-3.47869 -0.089,-0.20469 -0.1879,-0.62803 -0.22,-0.94077 -0.1006,-0.9798 -0.3831,-1.83 -1.1356,-3.41752 -0.4006,-0.84519 -0.8739,-1.92774 -1.0518,-2.40567 -0.815,-2.1901 -1.4577,-2.96497 -2.714,-3.27253 -0.5208,-0.1275 -2.2943,-0.1309 -3.4554,-0.007 -1.2141,0.12996 -2.6249,0.11147 -3.3789,-0.0443 -0.36282,-0.0749 -1.13863,-0.33609 -1.72403,-0.58033 -1.09065,-0.45505 -2.26004,-0.85844 -4.76278,-1.64299 -1.46701,-0.45988 -2.41131,-0.84786 -3.05934,-1.25698 -0.31745,-0.20042 -0.37178,-0.27782 -0.37178,-0.52962 0,-0.4352 0.4689,-0.80782 1.86069,-1.47863 0.64896,-0.31278 1.20374,-0.60723 1.23284,-0.65431 0.12727,-0.20593 -3.50913,-0.46732 -5.06659,-0.36419 -1.50921,0.0999 -1.87943,0.24234 -2.91252,1.12036 -0.8493,0.72181 -3.09238,3.46502 -4.10954,5.02583 -1.85942,2.8532 -3.29941,7.03667 -3.90492,11.34453 -0.25911,1.84346 -0.41326,2.5457 -0.9385,4.27545 -0.83029,2.73437 -0.97721,3.40936 -0.98299,4.51621 -0.004,0.83084 0.0214,1.01177 0.18821,1.32466 0.27895,0.52317 0.80851,0.93819 1.44516,1.13257 0.82498,0.25189 2.3948,0.23134 3.43423,-0.045 0.8806,-0.23408 1.88894,-0.27952 2.46304,-0.11101 0.51207,0.15031 1.21474,0.64962 2.47953,1.76194 0.86438,0.76018 1.35926,1.11219 2.36194,1.68009 1.73655,0.98355 2.21783,1.31708 2.9378,2.03601 0.67546,0.67446 1.0603,1.34943 1.32534,2.32453 0.13824,0.5086 0.15202,0.95454 0.13054,4.22484 -0.0188,2.87008 0.005,3.89519 0.1106,4.76761 0.24884,2.05469 0.36522,2.53274 0.80057,3.28839 0.48365,0.83949 0.64383,1.27485 0.6434,1.7487 -6.6e-4,0.64085 -0.45244,1.14012 -1.25249,1.38386 -0.24461,0.0745 -0.37725,0.18562 -0.49449,0.41418 -0.34022,0.66329 -0.92363,0.93484 -1.50984,0.70276 -0.15716,-0.0622 -0.62066,-0.35936 -1.03,-0.66032 -0.40933,-0.30095 -0.84569,-0.57265 -0.96967,-0.60377 -0.56713,-0.14234 -2.01427,0.61934 -5.09297,2.6806 -2.48415,1.66319 -3.11749,2.18605 -3.68864,3.04518 -1.09954,1.65395 -1.32811,3.2395 -0.92732,6.43269 0.54441,4.33748 0.22451,6.497 -1.07528,7.25872 -0.20717,0.12141 -0.43845,0.22075 -0.51394,0.22075 -0.0755,0 -0.30074,0.19526 -0.50055,0.43391 -0.4393,0.5247 -1.08924,1.02192 -2.39416,1.83159 -1.72726,1.07173 -2.08754,1.48965 -3.41323,3.95927 -0.44792,0.83443 -0.95585,1.77301 -1.12873,2.08575 -0.42872,0.77554 -0.54851,1.2541 -0.81021,3.23673 -0.25854,1.95875 -0.40114,2.5838 -0.72633,3.18356 -0.46445,0.85662 -1.22759,1.07833 -3.19706,0.92885 -1.35728,-0.10303 -1.95744,-0.0416 -3.57502,0.36574 -0.86566,0.218 -1.29282,0.27555 -2.21027,0.29777 -0.62547,0.0151 -1.28546,-0.01 -1.46663,-0.0549 z m -92.70486,-1.44119 c 0,-0.29381 -0.2875,-0.88945 -0.6297,-1.30455 -0.2561,-0.31078 -0.9714,-0.83773 -1.137,-0.83773 -0.1355,0 -0.069,0.70986 0.097,1.03529 0.2703,0.52985 1.2068,1.3025 1.6039,1.32322 0.036,0.002 0.066,-0.0954 0.066,-0.21623 z m -0.019,1.35397 c -1.0149,-0.17036 -2.2072,-1.05457 -2.6544,-1.96861 -0.4027,-0.82318 -0.3689,-1.84761 0.078,-2.3674 0.1658,-0.19273 0.2708,-0.23018 0.6451,-0.23018 1.7867,0 3.6178,2.60158 2.9282,4.16036 -0.099,0.22481 -0.2191,0.40874 -0.266,0.40874 -0.047,0 -0.1377,0.0149 -0.2018,0.0332 -0.064,0.0183 -0.3022,0.002 -0.5293,-0.0361 z m 72.44264,-12.87634 c -0.0772,-0.0616 -0.23044,-0.28867 -0.3406,-0.50461 -0.11016,-0.21593 -0.38833,-0.57009 -0.61815,-0.78701 -0.48402,-0.45685 -0.63425,-0.92472 -0.41994,-1.30788 0.10866,-0.19427 0.19268,-0.22726 0.6377,-0.25037 1.22669,-0.0637 2.49966,0.67016 2.49966,1.441 0,0.38679 -0.29943,0.90865 -0.71177,1.2405 -0.30042,0.24178 -0.84518,0.32939 -1.0469,0.16837 z m -1.74057,-6.30055 c 4e-5,-0.0361 -0.0527,-0.0656 -0.1171,-0.0656 -0.21736,0 -0.42896,0.73689 -0.26009,0.90576 0.0529,0.0529 0.37701,-0.66902 0.37719,-0.84015 z m -0.14339,2.52938 c -1.38282,-1.02317 -1.6928,-1.81897 -1.1421,-2.93213 0.2341,-0.47322 0.57529,-0.76698 1.03434,-0.89059 0.30009,-0.0808 0.38691,-0.0713 0.57767,0.0633 0.12348,0.0871 0.32593,0.22013 0.44991,0.29556 0.44716,0.2721 0.5173,1.0826 0.15041,1.73805 -0.10381,0.18545 -0.0979,0.26301 0.0456,0.59774 0.23536,0.54908 0.21698,1.02581 -0.0498,1.29263 -0.2988,0.2988 -0.47688,0.27131 -1.06597,-0.16457 z m -41.84654,-3.8197 c 0,-0.0481 -0.059,-0.0875 -0.13121,-0.0875 -0.0722,0 -0.13122,0.0394 -0.13122,0.0875 0,0.0481 0.059,0.0875 0.13122,0.0875 0.0722,0 0.13121,-0.0394 0.13121,-0.0875 z m -0.79624,1.02614 c -0.78557,-0.5248 -0.76735,-1.59018 0.0356,-2.07974 0.78981,-0.48158 1.81043,0.11238 1.81043,1.0536 0,0.96364 -1.05865,1.55211 -1.84599,1.02614 z m 40.46656,-1.4619 c 0.12565,-0.13884 0.13568,-0.19883 0.0504,-0.30157 -0.1257,-0.15145 -0.86168,-0.44736 -0.93366,-0.37538 -0.14757,0.14757 0.32461,0.85027 0.57135,0.85027 0.0853,0 0.22563,-0.078 0.3119,-0.17332 z m -0.87331,1.17326 c -0.69415,-0.36029 -1.09349,-1.03193 -1.09349,-1.83915 0,-0.76572 0.30674,-1.17281 0.88372,-1.17281 0.46594,0 1.34377,0.29332 1.70705,0.57041 0.81965,0.62518 0.85852,1.39543 0.10668,2.11421 -0.49325,0.47157 -1.09103,0.59356 -1.60396,0.32734 z m 10.2788,-9.04802 c 0,-0.0481 -0.0614,-0.0875 -0.13638,-0.0875 -0.075,0 -0.11205,0.0394 -0.0823,0.0875 0.0297,0.0481 0.0911,0.0875 0.13638,0.0875 0.0453,0 0.0823,-0.0394 0.0823,-0.0875 z m -0.6892,1.08001 c -0.83827,-0.42681 -0.84316,-1.74298 -0.008,-2.17482 0.99441,-0.51423 2.10064,0.4602 1.70337,1.50043 -0.26096,0.68333 -1.05632,0.99972 -1.6953,0.67439 z m -163.55185,-7.4567 c 0.2411,-0.13832 0.6151,-0.43504 0.8311,-0.65937 0.6285,-0.653 1.2228,-1.06429 1.8797,-1.30089 0.3368,-0.12131 0.6823,-0.24833 0.7677,-0.28228 0.2447,-0.0972 0.5882,-0.75944 0.5882,-1.13407 0,-0.18365 -0.1423,-0.77068 -0.3162,-1.3045 -0.2245,-0.68934 -0.3294,-1.19031 -0.3616,-1.72887 l -0.045,-0.75828 0.4344,-0.46643 c 0.2389,-0.25653 0.6017,-0.78135 0.8064,-1.16626 0.2046,-0.38491 0.4376,-0.77448 0.5178,-0.86572 0.2624,-0.29878 0.8241,-0.66516 1.0196,-0.66516 0.4595,0 1.5123,0.68517 1.6396,1.06698 0.018,0.0532 0.2143,-0.0432 0.4412,-0.21648 0.5102,-0.38943 1.1405,-0.53868 2.2503,-0.53283 1.4079,0.007 2.2573,0.47565 3.5455,1.95422 1.1604,1.33196 1.8839,1.68532 3.0719,1.50036 0.321,-0.05 0.621,-0.12826 0.6667,-0.17399 0.046,-0.0457 0.077,-0.54409 0.07,-1.10748 -0.017,-1.34731 0.095,-1.68225 0.8252,-2.47141 0.3068,-0.33138 0.5826,-0.70125 0.6129,-0.82192 0.03,-0.12068 -0.01,-0.4577 -0.082,-0.74894 -0.1677,-0.64714 -0.1757,-1.66435 -0.018,-2.25762 0.065,-0.24263 0.2675,-0.83312 0.4508,-1.31218 l 0.3334,-0.87104 0.072,-1.92454 c 0.04,-1.05849 0.1049,-2.7709 0.1454,-3.80534 l 0.074,-1.8808 0.4622,-1.18097 0.4623,-1.18097 0.076,-1.70584 c 0.106,-2.36372 0.2034,-3.0143 0.6485,-4.33022 0.2116,-0.62548 0.4292,-1.31438 0.4836,-1.53089 0.054,-0.21651 0.2792,-0.80699 0.4995,-1.31218 0.2447,-0.56114 0.4162,-1.09704 0.4408,-1.3773 0.039,-0.4414 0.027,-0.47121 -0.305,-0.78731 -0.1899,-0.1807 -0.5683,-0.51761 -0.8409,-0.74867 -0.6391,-0.54179 -0.8887,-0.97984 -1.163,-2.04132 -0.1678,-0.64921 -0.235,-1.17675 -0.2713,-2.13122 -0.091,-2.38631 0.2169,-3.03579 2.3077,-4.871 1.3285,-1.16607 1.9556,-1.91385 2.3981,-2.8594 0.5755,-1.22984 0.4888,-2.35345 -0.2743,-3.55668 -0.3865,-0.60932 -0.6626,-1.43394 -0.9557,-2.85442 -0.447,-2.16605 -0.7121,-2.82352 -1.4613,-3.62456 -0.4883,-0.52199 -0.5023,-0.80196 -0.061,-1.22162 0.4884,-0.46439 0.8202,-0.95924 0.8202,-1.22316 0,-0.26655 -0.3024,-0.45794 -0.8974,-0.56809 -0.6076,-0.11246 -0.7365,-0.29225 -0.7828,-1.09146 -0.022,-0.38812 -0.082,-0.74672 -0.1321,-0.79691 -0.063,-0.0634 -0.2712,-0.0192 -0.6798,0.14419 -0.4815,0.19264 -0.6268,0.21797 -0.7995,0.13929 -0.4625,-0.2107 -0.4497,-0.76771 0.053,-2.33848 0.3295,-1.02856 0.3301,-1.08405 0.012,-1.08405 -0.3475,0 -0.461,-0.17098 -0.6908,-1.04059 -0.1094,-0.414 -0.2218,-0.83859 -0.2496,-0.94353 -0.052,-0.19464 -7e-4,-0.2575 0.6456,-0.7966 0.1677,-0.13988 0.3066,-0.3526 0.3383,-0.51811 0.045,-0.23637 0.01,-0.32462 -0.2232,-0.5577 -0.2449,-0.24488 -0.3181,-0.27136 -0.6338,-0.22902 -0.2075,0.0278 -0.5531,0.18302 -0.8256,0.37066 -0.7179,0.49446 -0.8922,0.38632 -1.6966,-1.05272 -0.6185,-1.10641 -0.8948,-1.33878 -1.88,-1.58124 -0.8758,-0.2155 -1.1832,-0.39461 -2.035,-1.18569 -0.8096,-0.75196 -1.1983,-1.0107 -1.2915,-0.85987 -0.031,0.0497 -0.1528,0.4531 -0.2713,0.89635 -0.3901,1.45966 -0.8023,2.09658 -1.5793,2.44026 -0.2022,0.0894 -0.8128,0.24203 -1.3569,0.33906 -1.2707,0.22661 -1.6942,0.43312 -2.0528,1.00088 -0.6094,0.96497 -0.8963,1.29466 -1.7062,1.96132 -0.6878,0.56621 -0.9512,0.85655 -1.415,1.56001 -1.0319,1.56495 -1.6817,1.95924 -3.5635,2.16237 -1.7478,0.18866 -2.0481,0.31522 -2.4013,1.01226 -0.2606,0.51441 -0.8146,0.99809 -1.3444,1.17378 -0.95,0.31507 -2.9394,0.41262 -3.8587,0.18922 -0.3127,-0.076 -1.0709,-0.17404 -1.6849,-0.21784 -2.0817,-0.14851 -2.6387,-0.66106 -3.0008,-2.76112 -0.083,-0.48429 -0.2229,-0.94109 -0.3576,-1.17218 -0.3081,-0.52832 -0.3419,-0.40661 -0.059,0.21212 0.1822,0.39852 0.2375,0.65723 0.2417,1.13293 0.01,0.61059 0,0.63354 -0.8868,2.40568 -1.4638,2.93497 -1.5226,3.30173 -0.7266,4.53317 0.6291,0.97337 0.7283,1.22028 0.6075,1.51181 -0.058,0.141 -0.1863,0.31247 -0.2842,0.38104 -0.1735,0.12157 -0.1737,0.12619 -0.01,0.18477 0.2829,0.10106 0.4744,0.3128 0.4744,0.52453 0,0.19756 0.016,0.20119 0.8532,0.18669 0.7585,-0.0132 0.8966,0.009 1.2432,0.20048 0.2145,0.11841 0.4798,0.34861 0.5895,0.51156 0.1763,0.26164 0.1973,0.38943 0.1798,1.09349 -0.022,0.88483 0.063,1.14694 0.7226,2.24203 0.5927,0.98334 0.7044,1.43002 0.7761,3.10411 0.069,1.60943 0.067,1.60106 0.6806,2.4697 0.8135,1.15103 0.9842,1.90289 0.6806,2.99774 -0.073,0.26463 -0.1554,0.83543 -0.1824,1.26845 -0.046,0.73682 -0.028,0.85464 0.2805,1.83706 0.6114,1.9487 0.599,2.60997 -0.062,3.32754 -0.3389,0.36764 -0.6273,0.51395 -1.4435,0.73224 -0.2796,0.0748 -0.3757,0.14927 -0.4199,0.32566 -0.051,0.20127 0.057,2.03296 0.1803,3.07216 l 0.044,0.37179 0.8039,0.002 c 1.3996,0.004 2.112,0.29365 2.4271,0.98779 0.3383,0.74506 0.1216,2.12057 -0.5725,3.63482 -0.2171,0.47364 -0.3947,0.98061 -0.3947,1.12661 0,0.1781 0.133,0.44615 0.4042,0.81455 0.4726,0.64195 0.6455,1.01888 0.6455,1.40687 0,0.85781 -1.0416,0.7752 -1.9456,-0.15431 -0.2282,-0.23457 -0.4684,-0.50154 -0.5338,-0.59329 -0.1024,-0.14372 -0.1261,0.0742 -0.1704,1.57462 -0.07,2.35503 -0.2696,3.09786 -1.4789,5.49347 -0.1451,0.28735 -0.3377,0.89007 -0.4281,1.33936 -0.1844,0.91675 -0.2971,1.17733 -0.8011,1.85283 -0.437,0.58571 -0.4765,0.98014 -0.1422,1.41923 0.6988,0.91772 0.8291,1.67027 0.4804,2.77414 -0.126,0.39868 -0.229,0.81411 -0.229,0.92317 0,0.5192 0.2751,1.08529 0.8986,1.84926 0.6571,0.80503 2.132,2.92391 2.5266,3.62955 0.3361,0.60129 0.5729,1.25777 0.8519,2.36194 0.2626,1.03956 1.0096,2.88681 1.1674,2.88681 0.049,0 0.2885,-0.143 0.5318,-0.31777 1.1472,-0.82414 1.9523,-0.9413 2.9928,-0.43552 0.3354,0.16305 0.8066,0.43861 1.047,0.61236 0.5271,0.38096 0.7409,0.39117 1.3135,0.0627 z m -1.1829,1.27285 c -0.1689,-0.0604 -0.5558,-0.2788 -0.8599,-0.48531 -0.7927,-0.53829 -1.2807,-0.73736 -1.6417,-0.66964 -0.1637,0.0307 -0.5618,0.23673 -0.8848,0.45782 -0.9914,0.67876 -1.4107,0.78055 -1.9246,0.46723 -0.4764,-0.29047 -1.1914,-1.86005 -1.6454,-3.61198 -0.1601,-0.61762 -0.4113,-1.37995 -0.5583,-1.69405 -0.3212,-0.68642 -1.7035,-2.7277 -2.6372,-3.89451 -0.4127,-0.51572 -0.747,-1.03567 -0.8599,-1.33734 -0.244,-0.65206 -0.2479,-1.58783 -0.01,-2.28031 0.2665,-0.7747 0.2343,-1.16347 -0.1427,-1.71892 -0.4391,-0.64709 -0.5571,-0.95936 -0.5571,-1.47407 0,-0.535 0.1654,-0.95708 0.5673,-1.44759 0.386,-0.47098 0.4441,-0.61317 0.6537,-1.59806 0.1257,-0.59055 0.3448,-1.17584 0.7958,-2.12571 0.9403,-1.98032 0.9618,-2.07896 1.048,-4.80126 0.093,-2.9444 0.2027,-3.41169 0.7987,-3.41169 0.2376,0 0.3464,0.0827 0.6329,0.48103 0.1216,0.16917 0.1278,0.16632 0.1906,-0.0875 0.036,-0.14428 0.2362,-0.63234 0.4456,-1.08458 0.4405,-0.95178 0.6398,-1.65086 0.6543,-2.29569 0.016,-0.69972 -0.1231,-0.77488 -1.4313,-0.77488 -1.754,0 -1.9143,-0.17283 -2.0737,-2.23567 -0.2341,-3.03163 -0.1101,-3.42195 1.1945,-3.75777 0.4182,-0.10764 0.664,-0.2287 0.8394,-0.4134 0.22,-0.23156 0.2442,-0.31218 0.2133,-0.71065 -0.019,-0.2472 -0.186,-0.92185 -0.3708,-1.49921 -0.4234,-1.32283 -0.4651,-2.32059 -0.1509,-3.61006 0.2433,-0.99864 0.1979,-1.22188 -0.4299,-2.11584 -0.8162,-1.1623 -0.892,-1.40864 -0.9567,-3.1095 -0.031,-0.82128 -0.104,-1.60465 -0.1625,-1.74958 -0.058,-0.14434 -0.3172,-0.63641 -0.5754,-1.09349 -0.5762,-1.01988 -0.7457,-1.57972 -0.7457,-2.46222 0,-0.88491 -0.021,-0.89698 -1.4015,-0.81457 l -1.0361,0.0618 -0.2246,-0.24235 -0.2246,-0.24236 v 0.3127 c 0,0.65152 -0.6061,0.80423 -1.1026,0.27779 -0.6893,-0.73082 -0.6026,-1.42245 0.2901,-2.31453 l 0.569,-0.56861 -0.1559,-0.26244 c -0.659,-1.10941 -0.7688,-1.39061 -0.8082,-2.07121 -0.021,-0.37337 0.01,-0.86146 0.063,-1.08464 0.1455,-0.57791 0.998,-2.48191 1.5147,-3.38294 0.5878,-1.02506 0.6232,-1.35276 0.2366,-2.19 -0.2919,-0.63226 -0.4227,-1.40032 -0.3128,-1.838 0.094,-0.37621 0.6841,-0.51819 1.218,-0.29326 0.4235,0.17838 1.1627,0.88636 1.3678,1.30986 0.1,0.20616 0.2576,0.79735 0.3507,1.31375 0.2917,1.61715 0.4903,1.778 2.3419,1.89612 0.6641,0.0424 1.442,0.14136 1.7287,0.22 0.5436,0.14912 1.3353,0.13032 2.4394,-0.058 0.8103,-0.13818 1.0418,-0.29013 1.4057,-0.92288 0.5352,-0.93047 1.2275,-1.2629 2.9666,-1.42441 0.5209,-0.0484 1.0999,-0.1291 1.2867,-0.17941 0.5539,-0.14914 1.0429,-0.60043 1.6983,-1.56723 0.4978,-0.73422 0.7882,-1.0532 1.504,-1.65176 0.565,-0.47244 0.9938,-0.91313 1.181,-1.21359 0.8904,-1.4295 1.369,-1.75092 3.0553,-2.05184 1.5968,-0.28497 1.7828,-0.45682 2.2121,-2.04401 0.2794,-1.03276 0.3423,-1.18123 0.6175,-1.45604 0.582,-0.58107 1.3994,-0.30744 2.7393,0.91692 0.7682,0.70196 0.8421,0.74696 1.5309,0.93247 0.398,0.1072 0.8751,0.27194 1.0601,0.36608 0.4721,0.24023 1.0102,0.81129 1.3695,1.45339 0.4982,0.89045 0.4245,0.83975 0.9089,0.62549 1.3414,-0.59335 2.7652,0.21911 2.7652,1.57786 0,0.53874 -0.1468,0.91353 -0.528,1.34762 -0.2617,0.29805 -0.2803,0.35595 -0.2077,0.64655 0.067,0.26788 0.1266,0.32874 0.372,0.37859 0.3764,0.0765 0.4475,0.15404 0.5469,0.5963 0.096,0.42929 0,1.12725 -0.265,1.87939 -0.099,0.28419 -0.1806,0.53022 -0.1806,0.54675 0,0.0165 0.2204,0.03 0.4899,0.03 0.4374,0 0.5207,0.0309 0.7782,0.28841 0.2858,0.28572 0.48,0.77201 0.481,1.20389 6e-4,0.30778 0.1594,0.48148 0.5547,0.60681 0.3919,0.12425 0.888,0.53459 1.0686,0.88382 0.07,0.13481 0.1267,0.39824 0.1267,0.5854 0,0.39236 -0.4127,1.28217 -0.7353,1.58524 l -0.2135,0.20056 0.3699,0.54026 c 0.6223,0.90902 0.7581,1.33026 1.4116,4.3789 0.1022,0.4769 0.3105,1.00321 0.6651,1.68081 0.6557,1.25294 0.8134,1.84739 0.7509,2.82988 -0.062,0.97395 -0.3185,1.68692 -0.9412,2.61518 -0.4728,0.7048 -0.952,1.206 -2.9366,3.07096 -0.8177,0.76846 -1.0494,1.19041 -1.1682,2.12779 -0.1439,1.13495 0.1209,3.1204 0.5208,3.90422 0.096,0.18816 0.3811,0.51209 0.6335,0.71983 0.2525,0.20775 0.6394,0.55704 0.8599,0.77621 0.7231,0.71869 0.7798,1.50092 0.2073,2.86191 -0.3392,0.80645 -0.4164,1.02226 -1.0419,2.91278 -0.5256,1.58847 -0.5647,1.82975 -0.6567,4.06188 -0.086,2.078 -0.1329,2.32856 -0.6842,3.63038 -0.3516,0.83047 -0.3489,0.7997 -0.5239,6.07981 l -0.072,2.18697 -0.333,0.91854 c -0.1832,0.50519 -0.4125,1.21377 -0.5096,1.57462 -0.1589,0.5903 -0.1655,0.71311 -0.065,1.22471 0.1714,0.87488 0.204,1.57508 0.091,1.95248 -0.063,0.21198 -0.3152,0.56935 -0.6587,0.93502 -0.69,0.73472 -0.7654,0.97946 -0.6916,2.24639 0.052,0.89622 0.044,0.962 -0.1513,1.25209 -0.1167,0.1731 -0.3965,0.40123 -0.6437,0.52487 -0.3937,0.1969 -0.5421,0.2187 -1.4889,0.2187 -1.0187,0 -1.0704,-0.009 -1.6545,-0.29683 -0.4605,-0.22671 -0.7701,-0.4736 -1.3103,-1.04507 -1.2412,-1.31283 -1.6154,-1.65541 -2.0246,-1.85352 -0.834,-0.40373 -2.3467,-0.30421 -2.9113,0.19154 -0.3543,0.31104 -0.6245,0.42325 -1.0193,0.42325 -0.3222,0 -0.7848,-0.32564 -0.8775,-0.61769 -0.074,-0.23285 -0.6356,-0.46904 -0.797,-0.33511 -0.065,0.054 -0.286,0.41446 -0.4909,0.80099 -0.2048,0.38655 -0.5385,0.88825 -0.7414,1.11491 l -0.3689,0.4121 0.083,0.51656 c 0.046,0.2841 0.2028,0.87017 0.3488,1.30237 0.4616,1.36551 0.437,2.01245 -0.1094,2.87163 -0.3162,0.49737 -0.6803,0.74597 -1.4817,1.01161 -0.6183,0.20498 -1.1147,0.5434 -1.6897,1.15196 -0.6156,0.65154 -1.6617,1.22391 -2.2199,1.21457 -0.1262,-0.002 -0.3677,-0.0533 -0.5366,-0.11368 z m -10.4966,-3.56814 c 0,-0.0545 -0.084,-0.2344 -0.186,-0.39986 -0.234,-0.37876 -0.2314,-0.89804 0.01,-1.50443 0.2119,-0.53753 0.2335,-1.3106 0.047,-1.6718 -0.091,-0.17587 -0.2432,-0.28812 -0.4917,-0.36258 -0.3474,-0.1041 -0.3661,-0.0994 -0.5366,0.13469 -0.097,0.1334 -0.2712,0.27846 -0.3866,0.32236 -0.2538,0.0965 -0.2069,0.21398 0.3355,0.84068 0.4296,0.49648 0.5493,0.75988 0.685,1.50837 0.1153,0.63557 0.3321,1.23159 0.4482,1.23159 0.043,0 0.078,-0.0446 0.078,-0.099 z m -0.5604,1.19011 c -0.5259,-0.27429 -0.7866,-0.85188 -1.145,-2.53663 -0.021,-0.0974 -0.2566,-0.4517 -0.5243,-0.78732 -0.7603,-0.95333 -0.8191,-1.59453 -0.192,-2.09533 0.3368,-0.26905 0.358,-0.28903 0.6261,-0.59251 0.1957,-0.22148 0.2632,-0.24042 0.851,-0.23865 0.8061,0.002 1.2758,0.20297 1.6341,0.69761 0.4899,0.67621 0.5776,1.94978 0.1948,2.8282 l -0.184,0.42223 0.2184,0.37277 c 0.325,0.55458 0.3022,1.087 -0.064,1.50462 -0.2825,0.32171 -0.7098,0.55911 -1.0046,0.55809 -0.086,-3e-4 -0.2703,-0.0602 -0.4101,-0.13308 z m -2.7098,-7.44443 c 0.1332,-0.31884 0.1083,-0.81966 -0.054,-1.08189 -0.066,-0.10718 -0.1102,-0.0983 -0.28,0.0568 -0.1108,0.10115 -0.3094,0.23885 -0.4414,0.306 l -0.2399,0.1221 0.3078,0.45715 c 0.1694,0.25144 0.3679,0.45716 0.4413,0.45716 0.073,0 0.193,-0.14278 0.2659,-0.31728 z m -0.7539,1.39295 c -0.2191,-0.0797 -0.6045,-0.47953 -0.8877,-0.92084 -0.1542,-0.24039 -0.3947,-0.47794 -0.566,-0.55923 -0.3353,-0.15915 -0.4562,-0.45956 -0.3121,-0.77587 0.052,-0.1135 0.3595,-0.3519 0.6891,-0.53381 0.3275,-0.1808 0.7334,-0.43506 0.9018,-0.56503 0.1908,-0.1473 0.472,-0.25895 0.7465,-0.2964 0.3776,-0.0515 0.4758,-0.0322 0.6889,0.13546 0.7621,0.59941 0.9017,2.35437 0.2452,3.08038 -0.3459,0.38251 -1.073,0.59276 -1.5057,0.43534 z m 153.71309,-44.63385 0.20651,-0.16851 -0.39365,-0.17949 c -0.40386,-0.18413 -0.70009,-0.23398 -0.69951,-0.11771 1.8e-4,0.0361 0.0783,0.19355 0.17368,0.34991 0.19821,0.3251 0.41359,0.36008 0.71297,0.1158 z m -1.06444,1.12264 c -0.41734,-0.24211 -0.63232,-0.58366 -0.98597,-1.56648 -0.43217,-1.20105 -0.30213,-1.38914 0.8887,-1.28531 0.67205,0.0586 1.48874,0.32229 1.95616,0.63161 0.9068,0.6001 0.72309,1.58119 -0.4013,2.14306 -0.61017,0.30491 -1.02694,0.32696 -1.45759,0.0771 z m -7.69566,-6.72913 c 0,-0.11425 -0.49905,-0.11117 -0.56993,0.004 -0.0305,0.0493 -0.0279,0.21474 0.006,0.36767 l 0.0611,0.27806 0.25158,-0.28157 c 0.13838,-0.15486 0.25159,-0.32032 0.25159,-0.36767 z m -0.96403,1.7702 c -0.44266,-0.22314 -0.63402,-0.62393 -0.68039,-1.42502 -0.0341,-0.58831 -0.0136,-0.72349 0.14987,-0.98792 0.3049,-0.49333 0.75448,-0.61791 1.85215,-0.51321 0.95892,0.0915 1.12955,0.18336 1.12955,0.60834 0,0.4572 -0.87493,1.79831 -1.41396,2.16735 -0.41703,0.28551 -0.69059,0.32519 -1.03722,0.15046 z" /></g></svg>
