<?xml version="1.0" encoding="UTF-8" standalone="no"?>
<!-- Created with Inkscape (http://www.inkscape.org/) -->

<svg
   width="33.866665mm"
   height="33.866665mm"
   viewBox="0 0 33.866665 33.866665"
   version="1.1"
   id="svg1"
   xml:space="preserve"
   xmlns:inkscape="http://www.inkscape.org/namespaces/inkscape"
   xmlns:sodipodi="http://sodipodi.sourceforge.net/DTD/sodipodi-0.dtd"
   xmlns="http://www.w3.org/2000/svg"
   xmlns:svg="http://www.w3.org/2000/svg"><sodipodi:namedview
     id="namedview1"
     pagecolor="#ffffff"
     bordercolor="#000000"
     borderopacity="0.25"
     inkscape:showpageshadow="2"
     inkscape:pageopacity="0.0"
     inkscape:pagecheckerboard="0"
     inkscape:deskcolor="#d1d1d1"
     inkscape:document-units="mm"><inkscape:page
       x="0"
       y="0"
       width="33.866665"
       height="33.866665"
       id="page2"
       margin="0"
       bleed="0" /></sodipodi:namedview><defs
     id="defs1" /><g
     inkscape:label="Layer 1"
     inkscape:groupmode="layer"
     id="layer1"
     transform="translate(86.433326,-3.260417)"><rect
       style="fill:none;fill-opacity:1;stroke:none;stroke-width:0.7;stroke-linecap:round;stroke-linejoin:round;stroke-opacity:1"
       id="rect1-6-5-7"
       width="33.866665"
       height="33.866665"
       x="-86.433327"
       y="3.260417"
       inkscape:export-filename="orangeslice.svg"
       inkscape:export-xdpi="96"
       inkscape:export-ydpi="96" /><g
       id="g42-4-1"
       transform="matrix(0.25531584,0,0,0.25531584,-96.73526,-25.132754)"><path
         style="fill:#ffffff;fill-opacity:1;stroke:none;stroke-width:1.2;stroke-linecap:butt;stroke-linejoin:round;stroke-dasharray:none;stroke-opacity:1"
         d="m 136.42895,176.20263 c 0,0 -5.03685,-9.72632 -5.21053,-10.59474 -0.17369,-0.86842 -4.34211,-13.54737 -4.34211,-13.98158 0,-0.43421 -3.3,-5.38421 -3.3,-5.38421 l -4.60263,2.69211 1.73684,18.67105 5.38421,12.67895 7.72895,3.12631 z"
         id="path41-1-0" /><g
         id="g41-2-7"
         transform="translate(3.6842105e-6,-2.2578947)"><path
           style="fill:#f371a8"
           d="m 103.09075,217.69709 c 0.1819,-0.0734 0.47956,-0.0734 0.66146,0 0.1819,0.0734 0.0331,0.13345 -0.33073,0.13345 -0.3638,0 -0.51263,-0.06 -0.33073,-0.13345 z m 5.82083,0 c 0.1819,-0.0734 0.47956,-0.0734 0.66146,0 0.1819,0.0734 0.0331,0.13345 -0.33073,0.13345 -0.3638,0 -0.51263,-0.06 -0.33073,-0.13345 z m -7.65638,-0.2701 c 0.191,-0.0764 0.4192,-0.067 0.50712,0.0209 0.0879,0.0879 -0.0683,0.15045 -0.34727,0.13896 -0.30822,-0.0127 -0.37092,-0.0754 -0.15985,-0.15985 z m 23.33294,-6.26915 c 0,-0.0549 0.20836,-0.2633 0.46302,-0.46302 0.41965,-0.32911 0.42901,-0.31975 0.0999,0.0999 -0.34564,0.44073 -0.56292,0.58089 -0.56292,0.36313 z m -38.629166,-1.6199 c -0.64268,-0.65484 -1.108978,-1.19062 -1.036218,-1.19062 0.07276,0 0.658121,0.53578 1.300802,1.19062 0.64268,0.65484 1.108979,1.19063 1.036218,1.19063 -0.07276,0 -0.658121,-0.53579 -1.300802,-1.19063 z m 41.539586,-1.29052 c 0,-0.0549 0.20836,-0.2633 0.46302,-0.46302 0.41964,-0.32911 0.429,-0.31975 0.0999,0.0999 -0.34565,0.44073 -0.56292,0.58089 -0.56292,0.36313 z m 2.64583,-25.78037 c 0,-0.11438 0.74403,-0.47567 1.65339,-0.80287 0.90937,-0.32719 1.53445,-0.47851 1.38907,-0.33626 -0.39669,0.38814 -3.04246,1.37874 -3.04246,1.13913 z m -21.78966,-27.89629 c 0.92352,-2.65576 2.21673,-6.44013 2.87381,-8.40971 l 1.19468,-3.58106 4.56111,0.009 c 2.85822,0.006 4.5611,0.10796 4.5611,0.27376 0,0.14552 -1.25015,3.92428 -2.77812,8.39723 l -2.77812,8.13266 -4.65679,0.003 -4.65679,0.003 z m 28.66883,-20.93584 c 0,-0.0549 0.20836,-0.2633 0.46302,-0.46302 0.41964,-0.3291 0.429,-0.31975 0.0999,0.0999 -0.34564,0.44073 -0.56291,0.58089 -0.56291,0.36312 z"
           id="path30-0-3" /><g
           id="g40-0-4"><path
             style="fill:#acdcf7"
             d="m 72.166893,156.55513 c -0.329108,-0.41963 -0.319749,-0.429 0.0999,-0.0999 0.254661,0.19972 0.46302,0.40807 0.46302,0.46302 0,0.21776 -0.217272,0.0776 -0.562915,-0.36314 z"
             id="path32-1-9" /><path
             style="fill:#acdcf7"
             d="m 86.598853,244.34238 c -0.999022,-0.41048 -1.962877,-1.82363 -1.961806,-2.87629 0.0012,-1.20111 0.832165,-2.61917 1.736148,-2.96286 0.385951,-0.14674 4.093956,-0.258 8.598837,-0.258 h 7.920278 v -7.63638 -7.63638 l -1.65364,-0.1698 c -0.90951,-0.0934 -2.735867,-0.45961 -4.05857,-0.81381 -12.852139,-3.44163 -22.592836,-14.36455 -24.58268,-27.56626 -1.011463,-6.71059 -0.08146,-13.15382 2.81684,-19.51562 3.051633,-6.69837 3.636896,-8.06508 4.318053,-10.08361 0.39285,-1.16418 0.812242,-2.30544 0.93198,-2.53615 0.730758,-1.40806 2.418878,-8.58597 3.294561,-14.00853 0.657971,-4.0744 0.890441,-4.66109 2.129452,-5.3741 0.374093,-0.21528 4.382408,-0.34551 13.496709,-0.43851 l 12.964585,-0.1323 -2.71091,7.9375 c -1.491,4.36563 -2.8279,8.20539 -2.97089,8.53282 l -0.25998,0.59531 h -8.763083 c -9.473265,0 -10.030456,0.0741 -10.934779,1.45428 -0.221607,0.33821 -0.886726,2.0622 -1.478043,3.83109 -1.03116,3.08464 -2.489147,6.58798 -5.132716,12.3332 -0.675608,1.46829 -1.539738,3.84954 -1.920289,5.29167 -0.599281,2.27102 -0.693611,3.17108 -0.704616,6.72309 -0.0089,2.8796 0.115034,4.65537 0.416181,5.96222 3.610075,15.66613 18.466933,25.4724 33.844035,22.33875 8.7467,-1.78247 16.20216,-7.6216 20.08836,-15.73326 2.7571,-5.75489 3.44907,-11.45194 2.23538,-18.40411 -0.24915,-1.42717 -0.94637,-3.38618 -2.27062,-6.37983 -3.22123,-7.28203 -5.42781,-14.65321 -6.46875,-21.60915 -0.4734,-3.1634 -0.63938,-3.56057 -1.66573,-3.98569 -0.95028,-0.39362 -1.9772,-0.0437 -2.58245,0.88005 -0.40324,0.61544 -0.40313,0.86993 0.002,3.51754 0.23991,1.56976 0.49685,3.06247 0.57098,3.31713 0.1226,0.4212 -0.12972,0.46302 -2.79348,0.46302 -1.61053,0 -2.93157,-0.0893 -2.93563,-0.19844 -0.004,-0.10914 1.26807,-3.91914 2.82698,-8.46666 l 2.83437,-8.26823 1.86937,9.9e-4 c 3.19403,0.002 4.14005,0.91875 4.63892,4.49693 1.19406,8.56446 3.79562,17.19261 7.81815,25.92916 1.9413,4.21632 2.86576,6.87059 3.43127,9.85175 1.66153,8.75887 -0.10315,17.70231 -4.95877,25.1312 -1.94647,2.97801 -6.38466,7.51128 -9.19249,9.38941 -4.10234,2.74404 -9.4363,4.87315 -13.6468,5.4473 l -2.21305,0.30177 -0.15227,1.06689 c -0.0837,0.58679 -0.11692,3.98392 -0.0737,7.54918 l 0.0785,6.48229 8.39493,0.13229 8.39493,0.13229 0.68681,0.68724 c 0.91086,0.91141 1.15985,2.64763 0.54375,3.79164 -0.91215,1.69377 0.25264,1.60142 -20.93083,1.6594 -10.623029,0.0291 -19.562427,-0.049 -19.865337,-0.17342 z"
             id="path31-4-6" /><path
             style="fill:#fda553"
             d="m 100.24235,196.74936 c -1.038226,-0.5467 -1.847424,-1.89923 -1.846559,-3.08642 0.0012,-1.69969 1.672459,-3.30728 3.438189,-3.30728 1.76745,0 3.43648,1.6073 3.43859,3.31141 0.002,1.756 -1.74399,3.56775 -3.43859,3.56775 -0.36835,0 -1.08458,-0.21846 -1.59163,-0.48546 z m 34.15626,-3.63763 c 0.0127,-0.30823 0.0754,-0.37092 0.15986,-0.15986 0.0764,0.191 0.067,0.4192 -0.0209,0.50712 -0.0879,0.0879 -0.15045,-0.0683 -0.13897,-0.34726 z m -2.23851,-1.05003 c -0.09,-0.23453 -0.16362,-0.64894 -0.16362,-0.92091 0,-0.27198 -0.13123,-1.10638 -0.29161,-1.85423 -0.26033,-1.21385 -0.35258,-1.34177 -0.8599,-1.19232 -0.31256,0.0921 -0.86594,0.22189 -1.22974,0.28845 -0.36381,0.0666 -1.07818,0.19997 -1.5875,0.29643 -0.50933,0.0965 -1.1344,0.14846 -1.38907,0.11557 -0.25466,-0.0329 -0.46302,0.0413 -0.46302,0.16478 0,0.12352 -1.19056,0.2203 -2.6457,0.21507 -1.45513,-0.005 -2.64575,-0.0975 -2.64583,-0.20498 -7e-5,-0.10751 -0.26802,-0.18864 -0.59545,-0.18029 -1.53048,0.0391 -3.2727,-0.36514 -5.4901,-1.27368 -0.97656,-0.40012 -1.05757,-0.44071 -3.28585,-1.64626 -1.17701,-0.63678 -3.04404,-2.12826 -2.66417,-2.12826 0.0613,0 -0.2492,-0.36884 -0.68987,-0.81965 -1.2389,-1.26737 -1.98511,-3.8294 -1.61077,-5.53035 0.11209,-0.50933 0.0976,-1.69995 -0.0322,-2.64584 -0.22763,-1.65873 0.0507,-4.7966 0.632,-7.12617 0.14301,-0.57307 0.12608,-1.02972 -0.0459,-1.23689 -0.14991,-0.18063 -0.34146,-1.39187 -0.42567,-2.69165 l -0.15311,-2.36324 0.76431,-0.18348 c 0.42037,-0.10091 1.71682,-0.44539 2.88098,-0.7655 l 2.11667,-0.58202 -2.38125,-0.14844 c -1.40706,-0.0877 0.54525,-0.1689 4.77209,-0.19844 l 7.15335,-0.05 1.08648,4.29948 c 1.34111,5.30705 3.02842,10.00544 5.39233,15.0151 2.00202,4.24276 1.82008,4.10439 4.01936,3.05695 l 1.25695,-0.59863 0.26328,0.97773 c 0.75071,2.78793 1.20875,7.06704 0.93189,8.70581 -0.15153,0.89686 -0.30822,1.1165 -0.88819,1.24502 -0.38732,0.0858 -0.89847,0.20807 -1.1359,0.27164 -0.23742,0.0636 -0.50532,-0.0763 -0.59531,-0.31081 z m -54.667792,-2.39649 c 0,-4.86316 0.925539,-8.47981 3.732276,-14.58423 2.213457,-4.81409 3.344055,-7.62536 4.6041,-11.44824 0.407699,-1.23692 0.908429,-2.50659 1.112733,-2.82147 0.707859,-1.09099 1.903583,-1.41598 5.010668,-1.36186 l 2.870431,0.05 -2.38125,0.14844 -2.38125,0.14843 1.455208,0.36013 c 0.800365,0.19809 2.153353,0.54878 3.006642,0.77935 l 1.551433,0.41921 -0.187228,2.39335 c -0.102975,1.31634 -0.290487,2.58629 -0.416693,2.8221 -0.126205,0.23582 -0.279234,0.83217 -0.340063,1.32523 -0.06083,0.49306 -0.252411,1.25365 -0.425737,1.69021 -0.173325,0.43656 -0.297742,0.82551 -0.276482,0.8643 0.244258,0.44581 -1.89025,5.55682 -2.482666,5.94467 -0.163303,0.10691 -0.205198,0.19621 -0.0931,0.19844 0.282258,0.006 -0.732606,1.94732 -1.979451,3.78724 -1.267286,1.87007 -4.383178,5.47722 -4.731282,5.47722 -0.239634,0 -2.618537,1.51465 -3.368974,2.14503 -0.495185,0.41596 -2.859124,1.00587 -3.431266,0.85625 -0.399281,-0.10441 -0.489011,0.0617 -0.544887,1.00866 -0.101203,1.71518 -0.303163,1.58031 -0.303162,-0.20246 z M 100.27862,172.9699 c -3.159202,-1.55633 -1.9805,-6.42674 1.55536,-6.42674 3.57488,0 4.72639,5.13255 1.45791,6.49821 -1.17453,0.49074 -1.90732,0.47336 -3.01327,-0.0715 z"
             id="path29-6-5" /><path
             style="fill:#fb8c38"
             d="m 78.166692,194.79529 c -0.101859,-0.33175 -0.236088,-1.83754 -0.298285,-3.34622 -0.108979,-2.64342 -0.09378,-2.73799 0.418431,-2.60404 0.61466,0.16073 2.967844,-0.40802 3.484786,-0.84227 0.750437,-0.63038 3.12934,-2.14502 3.368974,-2.14502 0.348104,0 3.463996,-3.60715 4.731282,-5.47722 1.246845,-1.83992 2.261709,-3.78163 1.979451,-3.78724 -0.112099,-0.002 -0.0702,-0.0915 0.0931,-0.19844 0.608213,-0.39819 2.462342,-4.84653 2.532963,-6.07696 0.0064,-0.11157 0.13082,-0.5005 0.276482,-0.8643 0.145663,-0.3638 0.31461,-1.06487 0.37544,-1.55792 0.06083,-0.49306 0.213858,-1.08941 0.340063,-1.32523 0.126206,-0.23581 0.313867,-1.50767 0.417025,-2.82634 l 0.18756,-2.39759 -1.816349,-0.47376 c -4.6086,-1.20206 -4.551583,-1.10232 -0.741188,-1.29663 7.055663,-0.35982 19.422533,-0.0824 18.102023,0.40614 -0.34479,0.12754 -1.63219,0.48404 -2.8609,0.79221 l -2.23401,0.5603 0.15287,2.3595 c 0.0841,1.29773 0.27552,2.50729 0.42543,2.68792 0.17193,0.20717 0.18886,0.66382 0.0459,1.23689 -0.58135,2.32957 -0.85963,5.46744 -0.632,7.12617 0.12981,0.94589 0.1443,2.13651 0.0322,2.64584 -0.37434,1.70095 0.37187,4.26298 1.61077,5.53035 0.44067,0.45081 0.75112,0.81965 0.68987,0.81965 -0.37987,0 1.48716,1.49148 2.66417,2.12826 2.22828,1.20555 2.30929,1.24614 3.28585,1.64626 2.2174,0.90854 3.95962,1.31273 5.4901,1.27368 0.32743,-0.008 0.59538,0.0728 0.59545,0.18028 8e-5,0.10751 1.1907,0.19975 2.64583,0.20498 1.45514,0.005 2.6457,-0.0915 2.6457,-0.21507 0,-0.12351 0.20836,-0.19767 0.46302,-0.16478 0.25467,0.0329 0.87974,-0.0191 1.38907,-0.11557 0.50932,-0.0965 1.22369,-0.22984 1.5875,-0.29642 0.3638,-0.0666 0.91718,-0.19638 1.22974,-0.28846 0.50732,-0.14945 0.59957,-0.0215 0.8599,1.19232 0.16038,0.74785 0.29343,1.62176 0.29566,1.94202 0.007,1.03195 0.31013,1.2365 1.45041,0.97933 0.57432,-0.12953 1.06651,-0.21232 1.09376,-0.18398 0.0272,0.0283 -0.0132,0.60437 -0.0899,1.28007 l -0.13948,1.22855 -1.09325,-0.0573 c -0.60129,-0.0315 -7.13567,-0.0783 -14.52086,-0.10407 l -13.4276,-0.0468 v -0.6746 c 0,-1.68319 -1.68103,-3.29217 -3.43958,-3.29217 -1.75856,0 -3.439589,1.60898 -3.439589,3.29217 v 0.6746 l -7.342187,0.006 c -4.049966,0.003 -7.816741,0.12625 -8.40052,0.2738 -1.088721,0.27517 -1.343494,0.32445 -3.208229,0.6206 -0.979563,0.15557 -1.110565,0.11147 -1.276762,-0.42982 z m 25.125198,-21.75392 c 3.26848,-1.36566 2.11697,-6.49821 -1.45791,-6.49821 -3.53586,0 -4.714562,4.87041 -1.55536,6.42674 1.10595,0.54483 1.83874,0.56221 3.01327,0.0715 z"
             id="path28-0-1" /><path
             style="fill:#ea705c"
             d="m 101.83398,217.48419 c -4.100686,-0.68238 -8.235551,-2.3401 -11.773964,-4.72033 -1.875323,-1.2615 -5.527164,-4.74207 -6.724027,-6.40867 l -0.845461,-1.17727 23.795902,-0.0689 23.7959,-0.069 -0.82886,1.17585 c -2.43763,3.45807 -7.65769,7.58502 -11.74783,9.28775 -4.88074,2.03186 -10.83867,2.78482 -15.67166,1.98058 z m 10.84791,-75.03294 c 1e-5,-0.49929 4.88077,-14.0047 5.31528,-14.70776 0.29273,-0.47363 0.97271,-1.13506 1.51108,-1.4698 0.95664,-0.59485 1.16026,-0.61048 8.97326,-0.68906 5.59803,-0.0563 8.16254,0.01 8.55531,0.21978 0.77592,0.41527 1.56175,2.26936 1.56695,3.69708 0.006,1.78254 -0.44367,3.06215 -1.34367,3.81945 l -0.80631,0.67846 h -5.90501 -5.90501 l -1.53115,4.29948 -1.53115,4.29948 h -4.44979 c -2.44738,0 -4.44979,-0.0662 -4.44979,-0.14711 z"
             id="path27-7-0" /><path
             style="fill:#f67c3d"
             d="m 81.343322,203.14115 c -0.653948,-1.11714 -1.533012,-2.99238 -1.953474,-4.16719 -1.046845,-2.92498 -1.189408,-3.58667 -0.778102,-3.61147 0.184674,-0.0111 0.573895,-0.0689 0.864937,-0.12831 0.291042,-0.0594 0.886354,-0.16581 1.322917,-0.23639 0.436562,-0.0706 1.27,-0.24811 1.852083,-0.39454 0.582083,-0.14642 4.34941,-0.26907 8.371837,-0.27254 l 7.313505,-0.006 0.158616,0.63198 c 0.08724,0.34759 0.595525,1.01559 1.129524,1.48445 0.890265,0.78166 1.088735,0.84269 2.389465,0.73483 1.10855,-0.0919 1.59286,-0.28464 2.21617,-0.88181 0.43869,-0.42029 0.86703,-1.04071 0.95186,-1.37871 l 0.15424,-0.61455 14.274,0.0376 c 12.58807,0.0332 14.29247,0.0858 14.43041,0.44521 0.35864,0.93462 -1.72853,6.52432 -3.46079,9.2684 l -0.70735,1.12051 H 106.20275 82.53232 Z"
             id="path26-1-9" /></g></g></g></g></svg>
