<?xml version="1.0" encoding="UTF-8" standalone="no"?>
<!-- Created with Inkscape (http://www.inkscape.org/) -->

<svg
   width="26.049347mm"
   height="33.951973mm"
   viewBox="0 0 26.049347 33.951973"
   version="1.1"
   id="svg1"
   xml:space="preserve"
   inkscape:version="1.4.4 (dcaf3e7, 2026-05-05)"
   sodipodi:docname="spritz.svg"
   xmlns:inkscape="http://www.inkscape.org/namespaces/inkscape"
   xmlns:sodipodi="http://sodipodi.sourceforge.net/DTD/sodipodi-0.dtd"
   xmlns="http://www.w3.org/2000/svg"
   xmlns:svg="http://www.w3.org/2000/svg"><sodipodi:namedview
     id="namedview1"
     pagecolor="#ffffff"
     bordercolor="#000000"
     borderopacity="0.25"
     inkscape:showpageshadow="2"
     inkscape:pageopacity="0.0"
     inkscape:pagecheckerboard="0"
     inkscape:deskcolor="#d1d1d1"
     inkscape:document-units="mm"
     inkscape:zoom="1.0771772"
     inkscape:cx="721.32979"
     inkscape:cy="366.23501"
     inkscape:window-width="1920"
     inkscape:window-height="1057"
     inkscape:window-x="-8"
     inkscape:window-y="1072"
     inkscape:window-maximized="1"
     inkscape:current-layer="layer1"><inkscape:page
       x="0"
       y="0"
       width="26.049347"
       height="33.951973"
       id="page2"
       margin="0"
       bleed="0" /></sodipodi:namedview><defs
     id="defs1" /><g
     inkscape:label="Layer 1"
     inkscape:groupmode="layer"
     id="layer1"
     transform="translate(-219.91151,-33.115677)"><path
       id="path5-7"
       style="fill:#acdcf7;fill-opacity:1;stroke:none;stroke-width:1.00008;stroke-linejoin:round;stroke-dasharray:none;stroke-opacity:1"
       d="m 228.74739,37.67776 c 0,0 -1.23923,5.438255 -1.26655,7.259652 -0.0329,2.193277 0.27408,3.448229 1.17648,4.889724 0.81758,1.30602 2.07489,2.165347 2.33854,2.374721 0.26365,0.209367 1.27943,0.93794 1.42675,1.155065 0.14734,0.217125 0.17941,0.372473 0.17941,0.372473 v 6.36373 c 0,0 0.0659,1.765393 -0.10964,2.565937 -0.11073,0.505255 -0.50544,0.953877 -0.78148,1.215977 a 4.7523284,1.1992274 0 0 0 -3.38323,1.148043 4.7523284,1.1992274 0 0 0 2.78004,1.091203 l 0.004,0.01036 0.0546,-0.0036 h 3.7e-4 a 4.7523284,1.1992274 0 0 0 1.91292,0.101515 4.7523284,1.1992274 0 0 0 1.91255,-0.101515 4.7523284,1.1992274 0 0 0 3.7e-4,0 l 0.0546,0.0036 0.004,-0.01036 a 4.7523284,1.1992274 0 0 0 2.78005,-1.091203 4.7523284,1.1992274 0 0 0 -3.38361,-1.148043 c -0.27614,-0.2621 -0.67074,-0.710729 -0.78148,-1.215977 -0.17546,-0.800544 -0.10964,-2.565937 -0.10964,-2.565937 v -6.36373 c 0,0 0.0321,-0.155348 0.17941,-0.372473 0.14733,-0.217125 1.1631,-0.945698 1.42675,-1.155065 0.26365,-0.209374 1.52133,-1.068701 2.33892,-2.374721 0.90239,-1.441495 1.20937,-2.696447 1.17647,-4.889724 -0.0273,-1.821397 -1.26654,-7.259652 -1.26654,-7.259652 h -3.9041 -0.85717 z"
       inkscape:export-filename="spritz.svg"
       inkscape:export-xdpi="96"
       inkscape:export-ydpi="96" /><path
       style="fill:#f67c3d;fill-opacity:1;stroke:none;stroke-width:0.357171;stroke-linejoin:round;stroke-dasharray:none"
       d="m 227.85106,42.610688 h 10.48384 l 0.27967,1.941893 -0.0155,1.256208 -0.062,1.101125 -0.26365,1.132142 -0.43425,1.178667 -0.80646,1.225192 -0.89951,0.946034 -1.30273,1.023583 -0.74986,-0.02857 c -0.36838,0.317111 -1.5577,0.333134 -1.98035,0.03607 l -1.13148,-0.271208 -1.27171,-1.054599 -0.96155,-1.101118 -0.55832,-1.0546 -0.48077,-1.380283 -0.21712,-1.550876 0.062,-1.736982 z"
       id="path4-1"
       sodipodi:nodetypes="cccccccccccccccccccc" /><path
       id="rect22-77"
       style="fill:#fc9b52;fill-opacity:1;stroke:none;stroke-width:0.785778;stroke-linejoin:round;stroke-dasharray:none;stroke-opacity:0.779851"
       d="m 227.85102,42.610827 -0.30971,1.662639 -0.062,1.736839 0.12145,0.867863 h 10.9382 l 0.0602,-1.069422 0.0155,-1.256205 -0.27982,-1.941714 z" /><path
       id="rect23-7"
       style="fill:#e96752;fill-opacity:1;stroke:none;stroke-width:0.785778;stroke-linejoin:round;stroke-dasharray:none;stroke-opacity:0.779851"
       d="m 228.6122,49.762688 0.1233,0.233297 0.96163,1.101168 1.27172,1.054657 1.13143,0.271322 c 0.42265,0.29706 1.6121,0.280937 1.98047,-0.03617 l 0.74974,0.02842 1.30272,-1.023276 0.89961,-0.946127 0.44962,-0.683291 z" /><path
       id="path2-73"
       style="fill:none;fill-opacity:0.526119;stroke:#acdcf7;stroke-width:1.00008;stroke-linejoin:round;stroke-dasharray:none;stroke-opacity:1"
       d="m 228.74739,37.67776 c 0,0 -1.23923,5.438255 -1.26655,7.259652 -0.0329,2.193277 0.27408,3.448229 1.17648,4.889724 0.81758,1.30602 2.07489,2.165347 2.33854,2.374721 0.26365,0.209367 1.27943,0.93794 1.42675,1.155065 0.14734,0.217125 0.17941,0.372473 0.17941,0.372473 v 6.36373 c 0,0 0.0659,1.765393 -0.10964,2.565937 -0.11073,0.505255 -0.50544,0.953877 -0.78148,1.215977 a 4.7523284,1.1992274 0 0 0 -3.38323,1.148043 4.7523284,1.1992274 0 0 0 2.78004,1.091203 l 0.004,0.01036 0.0546,-0.0036 h 3.7e-4 a 4.7523284,1.1992274 0 0 0 1.91292,0.101515 4.7523284,1.1992274 0 0 0 1.91255,-0.101515 4.7523284,1.1992274 0 0 0 3.7e-4,0 l 0.0546,0.0036 0.004,-0.01036 a 4.7523284,1.1992274 0 0 0 2.78005,-1.091203 4.7523284,1.1992274 0 0 0 -3.38361,-1.148043 c -0.27614,-0.2621 -0.67074,-0.710729 -0.78148,-1.215977 -0.17546,-0.800544 -0.10964,-2.565937 -0.10964,-2.565937 v -6.36373 c 0,0 0.0321,-0.155348 0.17941,-0.372473 0.14733,-0.217125 1.1631,-0.945698 1.42675,-1.155065 0.26365,-0.209374 1.52133,-1.068701 2.33892,-2.374721 0.90239,-1.441495 1.20937,-2.696447 1.17647,-4.889724 -0.0273,-1.821397 -1.26654,-7.259652 -1.26654,-7.259652 h -3.9041 -0.85717 z" /><path
       style="fill:none;fill-opacity:1;stroke:#ffffff;stroke-width:0.785778;stroke-linecap:round;stroke-linejoin:round;stroke-dasharray:none;stroke-opacity:1"
       d="m 236.82963,38.314996 c 0.58529,2.588061 0.77285,3.769311 1.00892,6.500904"
       id="path24-3"
       sodipodi:nodetypes="cc" /><rect
       style="fill:none;fill-opacity:1;stroke:none;stroke-width:0.61469;stroke-linecap:round;stroke-linejoin:round;stroke-opacity:1"
       id="rect1-6-5-1-5"
       width="26.049343"
       height="33.951973"
       x="219.91151"
       y="33.115677"
       inkscape:export-filename="orangeslice.svg"
       inkscape:export-xdpi="96"
       inkscape:export-ydpi="96" /></g></svg>
