<?xml version="1.0" encoding="UTF-8" standalone="no"?>
<!-- Created with Inkscape (http://www.inkscape.org/) -->

<svg
   width="15.257332mm"
   height="19.88335mm"
   viewBox="0 0 15.257332 19.88335"
   version="1.1"
   id="svg1"
   xml:space="preserve"
   inkscape:version="1.4.4 (dcaf3e7, 2026-05-05)"
   sodipodi:docname="webpageMockup.svg"
   xmlns:inkscape="http://www.inkscape.org/namespaces/inkscape"
   xmlns:sodipodi="http://sodipodi.sourceforge.net/DTD/sodipodi-0.dtd"
   xmlns="http://www.w3.org/2000/svg"
   xmlns:svg="http://www.w3.org/2000/svg"><sodipodi:namedview
     id="namedview1"
     pagecolor="#ffffff"
     bordercolor="#000000"
     borderopacity="0.25"
     inkscape:showpageshadow="2"
     inkscape:pageopacity="0.0"
     inkscape:pagecheckerboard="0"
     inkscape:deskcolor="#d1d1d1"
     inkscape:document-units="mm"
     inkscape:zoom="0.29421895"
     inkscape:cx="-1196.3879"
     inkscape:cy="11618.898"
     inkscape:window-width="1920"
     inkscape:window-height="1057"
     inkscape:window-x="-8"
     inkscape:window-y="-8"
     inkscape:window-maximized="1"
     inkscape:current-layer="g166"
     showguides="true"><inkscape:page
       x="1.1531304e-22"
       y="-6.3252934e-21"
       width="15.257333"
       height="19.883348"
       id="page2"
       margin="0"
       bleed="0" /></sodipodi:namedview><defs
     id="defs1" /><g
     inkscape:label="Layer 1"
     inkscape:groupmode="layer"
     id="layer1"
     transform="translate(-45.683397,-803.7556)"><g
       id="g73"
       style="fill:#00c4b1;fill-opacity:1"
       transform="matrix(0.62144196,0,0,0.62144196,-113.67189,467.84617)"><path
         style="fill:#00c4b1;fill-opacity:1"
         d="m 261.82012,550.49945 c -0.71007,-0.71006 -0.83902,-1.46304 -0.39321,-2.29604 0.68416,-1.27837 2.46245,0.1446 2.31867,1.85537 -0.10221,1.21613 -0.95486,1.41127 -1.92546,0.44067 z"
         id="path72" /><path
         style="fill:#00c4b1;fill-opacity:1"
         d="m 267.99844,551.22012 c -0.43155,-0.52323 -0.41241,-6.89866 0.0256,-8.5253 0.2357,-0.87533 1.45505,-2.42049 1.67766,-2.12593 0.0463,0.0612 0.33773,0.44631 0.64772,0.85578 0.30999,0.40947 0.51325,0.88572 0.45169,1.05833 -0.0616,0.17261 -0.22971,2.04025 -0.37366,4.1503 -0.24849,3.64229 -0.29639,3.86659 -0.94638,4.43177 -0.81854,0.71174 -1.0072,0.73147 -1.48263,0.15505 z"
         id="path71" /><path
         style="fill:#00c4b1;fill-opacity:1"
         d="m 273.62239,552.64684 c -0.75964,-0.75964 0.2132,-3.17298 1.47198,-3.65157 0.86773,-0.32991 1.21556,-0.30949 1.78187,0.10461 0.44048,0.32208 0.44638,0.41149 0.0742,1.12448 -0.42464,0.81347 -1.51995,1.88264 -2.46814,2.40925 -0.41681,0.23148 -0.63824,0.23489 -0.8599,0.0132 z"
         id="path70" /><path
         style="fill:#00c4b1;fill-opacity:1"
         d="m 258.44607,557.91046 c -2.09687,-0.70123 -2.15791,-0.74825 -1.92478,-1.48279 0.24532,-0.77293 1.21713,-1.09836 2.29875,-0.76979 0.48278,0.14665 1.58156,0.37244 2.44175,0.50175 0.86019,0.12931 1.73886,0.40999 1.95259,0.62373 0.34176,0.34175 0.30617,0.47105 -0.29518,1.0724 -0.86092,0.86092 -2.01993,0.87509 -4.47313,0.0547 z"
         id="path69" /><path
         style="fill:#00c4b1;fill-opacity:1"
         d="m 275.7051,558.80414 c -1.24827,-0.11348 -1.46697,-0.21498 -1.53794,-0.71377 -0.12239,-0.86018 1.65124,-1.67684 4.03299,-1.85697 1.562,-0.11813 1.97613,-0.064 2.34667,0.3065 0.4985,0.4985 0.57047,1.13481 0.19541,1.72788 -0.29053,0.45941 -2.86643,0.73369 -5.03713,0.53636 z"
         id="path68" /><path
         style="fill:#00c4b1;fill-opacity:1"
         d="m 274.37235,564.94197 c -0.83849,-0.83849 -1.0485,-1.24187 -1.0485,-2.01397 0,-0.59878 0.14554,-1.02132 0.38318,-1.11251 0.55098,-0.21143 1.79072,0.5982 2.49918,1.63213 0.49266,0.71899 0.56208,1.03056 0.36286,1.62853 -0.36326,1.09032 -1.01184,1.0507 -2.19672,-0.13418 z"
         id="path67" /><path
         style="fill:#00c4b1;fill-opacity:1"
         d="m 259.74191,567.09441 c -0.36995,-0.36995 -0.15235,-1.34111 0.41892,-1.86965 0.32742,-0.30293 1.10392,-0.81331 1.72555,-1.13417 0.98363,-0.50771 1.23245,-0.54105 1.91823,-0.25699 0.4334,0.17952 0.78799,0.41677 0.78799,0.52721 0,0.11045 -0.7896,0.81038 -1.75467,1.5554 -1.60707,1.24064 -2.64036,1.63386 -3.09602,1.1782 z"
         id="path66" /><path
         style="fill:#00c4b1;fill-opacity:1"
         d="m 266.86949,571.96716 c -0.31068,-0.48527 -0.34379,-1.24562 -0.17911,-4.11323 0.11111,-1.93486 0.33069,-3.6466 0.48796,-3.80386 0.15726,-0.15727 0.58306,-0.21137 0.94621,-0.12022 1.01083,0.2537 1.29148,1.48515 1.07032,4.69634 -0.16133,2.34227 -0.27188,2.80494 -0.79529,3.32836 -0.76078,0.76077 -1.04956,0.76315 -1.53009,0.0126 z"
         id="path63" /></g></g></svg>
